<svg version="1.1" id="Layer_1" xmlns="http://www.w3.org/2000/svg" xmlns:xlink="http://www.w3.org/1999/xlink" x="0px" y="0px"
	 width="100%" viewBox="0 0 786 186" enable-background="new 0 0 786 186" xml:space="preserve">
<path fill="#040001" opacity="1.000000" stroke="none" 
	d="
M543.000000,187.000000 
	C362.000031,187.000000 181.500046,187.000000 1.000048,187.000000 
	C1.000032,125.000031 1.000032,63.000057 1.000016,1.000065 
	C262.999939,1.000043 524.999878,1.000043 786.999878,1.000022 
	C786.999878,62.999935 786.999878,124.999870 786.999939,186.999908 
	C705.833313,187.000000 624.666687,187.000000 543.000000,187.000000 
M240.559753,78.709053 
	C241.137939,77.838478 241.716125,76.967903 242.775497,75.851768 
	C242.938477,75.195396 243.101456,74.539024 243.840408,73.462479 
	C244.231552,72.641518 244.622681,71.820549 245.382248,70.293312 
	C245.858292,67.623138 246.334320,64.952965 247.123077,61.764870 
	C247.081451,61.176708 247.039841,60.588547 247.268707,59.099663 
	C247.135910,54.066090 247.003098,49.032520 247.000534,43.412464 
	C246.694397,42.927853 246.388260,42.443245 246.059464,41.276295 
	C245.759293,40.182877 245.459137,39.089458 245.305634,37.271442 
	C244.674255,36.277996 244.042877,35.284546 243.459000,33.604141 
	C241.279022,28.666431 237.443649,25.629354 231.853958,23.600431 
	C229.569046,23.089958 227.284149,22.579487 224.211670,21.893173 
	C223.140518,21.909843 222.069382,21.926514 220.345398,21.753908 
	C219.898163,21.800293 219.450912,21.846676 218.086380,21.680986 
	C209.269241,21.766319 200.452118,21.851654 190.861496,21.764654 
	C189.111130,22.076546 187.360748,22.388439 185.229324,22.052876 
	C184.163742,22.368656 183.098175,22.684437 181.816040,23.655281 
	C181.890045,24.103310 181.964050,24.551338 181.815552,25.914185 
	C181.891251,41.943218 181.966949,57.972248 181.793716,74.778824 
	C181.876938,75.851990 181.960175,76.925163 181.802139,78.909286 
	C181.759506,100.017509 181.784683,121.126282 181.615494,142.233490 
	C181.582748,146.317612 183.240952,147.560898 187.027878,147.055801 
	C191.472336,146.462967 195.933609,145.745804 200.399979,145.648117 
	C203.886368,145.571869 204.934784,144.403809 204.870285,140.944534 
	C204.665802,129.978104 204.711655,119.004921 204.804459,108.035561 
	C204.912460,95.269638 204.978333,95.270546 217.549652,95.425385 
	C217.712952,95.427399 217.876953,95.371346 218.440079,95.942589 
	C219.278976,96.332657 220.117874,96.722717 221.279465,97.743126 
	C222.616379,102.958496 224.686722,108.113441 225.122513,113.403053 
	C225.818359,121.848984 225.490051,130.384583 225.466843,138.881927 
	C225.457169,142.427322 226.744934,144.077881 230.524734,143.821274 
	C235.340775,143.494293 240.182159,143.523193 245.013367,143.442993 
	C248.235077,143.389496 250.426193,142.908936 248.393097,138.793121 
	C247.563934,137.114594 247.575241,134.924576 247.548203,132.962524 
	C247.419693,123.631744 247.831009,114.269516 247.173676,104.980507 
	C246.860992,100.561813 244.593079,96.281471 243.208099,91.337318 
	C242.808990,90.928337 242.409882,90.519356 241.851288,89.557663 
	C241.147797,88.979813 240.444305,88.401970 239.395859,87.194901 
	C238.594757,86.757256 237.793671,86.319611 236.668472,85.491173 
	C236.199249,85.333221 235.730026,85.175270 235.304443,84.335312 
	C235.228912,83.888664 235.153397,83.442017 235.539383,82.727081 
	C236.023956,82.210152 236.508530,81.693222 237.646317,81.153107 
	C238.393829,80.417648 239.141342,79.682198 239.951324,78.962761 
	C239.951324,78.962761 239.951965,78.898277 240.559753,78.709053 
M146.204330,21.885874 
	C145.135880,21.909538 144.067413,21.933203 142.157288,21.760523 
	C140.438171,21.802879 138.719070,21.845236 136.084717,21.667267 
	C125.346375,21.667267 114.608032,21.667267 103.514542,21.667267 
	C103.514542,24.243862 103.514832,26.041809 103.514496,27.839758 
	C103.509697,53.597229 103.476059,79.354744 103.514832,105.112144 
	C103.529320,114.739983 103.712593,124.367569 103.594444,134.850525 
	C103.667320,136.902176 103.740189,138.953842 103.580551,141.847794 
	C103.542984,143.344727 103.480057,144.841537 103.472137,146.338623 
	C103.432610,153.809372 103.452286,153.951782 110.773804,153.201263 
	C119.171791,152.340378 127.539429,150.363220 135.922119,150.352661 
	C151.080811,150.333572 161.417648,143.934357 167.455139,129.419373 
	C167.527496,128.571808 167.599854,127.724251 168.253479,126.459061 
	C168.561447,124.635010 168.869415,122.810959 169.403427,120.076843 
	C169.437500,97.849167 169.490387,75.621483 169.484207,53.393826 
	C169.483337,50.262550 169.193756,47.131359 169.072739,43.285675 
	C168.454590,42.277626 167.836426,41.269577 167.484604,39.606926 
	C166.671219,37.736729 165.857849,35.866528 165.048569,33.327217 
	C164.034973,32.211349 163.021362,31.095482 161.787766,29.455835 
	C161.060806,28.916513 160.333862,28.377190 159.263504,27.202572 
	C157.175598,26.107208 155.087708,25.011845 152.535599,23.559034 
	C151.963715,23.581482 151.391830,23.603928 150.334259,23.092411 
	C149.217896,22.757643 148.101547,22.422874 146.204330,21.885874 
M702.686584,59.389065 
	C702.686584,59.389065 702.680725,59.395729 702.850037,60.159073 
	C705.025085,66.064041 707.200195,71.969009 709.399963,78.597130 
	C709.542664,79.056107 709.685364,79.515083 709.636108,80.597183 
	C710.229370,81.676178 710.822632,82.755180 711.416626,84.678810 
	C711.297791,85.792389 711.178955,86.905960 710.511230,88.304062 
	C710.344116,88.870049 710.177002,89.436035 709.700378,90.591667 
	C709.689148,91.247795 709.677856,91.903931 709.655579,92.569901 
	C709.655579,92.569901 709.659790,92.589462 709.157959,92.993706 
	C708.712402,94.332451 708.266846,95.671196 707.498413,97.662743 
	C707.413269,98.138550 707.328186,98.614357 706.659790,99.396896 
	C706.345093,100.601318 706.030396,101.805740 705.373901,103.632454 
	C705.277710,104.094566 705.181519,104.556679 704.472717,105.376984 
	C703.049744,109.226654 701.531250,113.044243 700.225159,116.933167 
	C697.983887,123.606758 695.875244,130.324890 693.376160,137.652161 
	C693.292969,138.117050 693.209717,138.581940 692.505676,139.402710 
	C690.889526,143.814209 689.273315,148.225693 687.199219,153.886963 
	C694.392395,154.468079 700.872864,155.045471 707.364624,155.436020 
	C708.042725,155.476837 709.207947,154.548645 709.437927,153.839920 
	C712.768738,143.572479 715.978210,133.265686 719.471008,122.287262 
	C719.495911,121.805420 719.520813,121.323586 720.041870,120.535728 
	C720.279175,120.022133 720.516541,119.508545 721.196655,118.442696 
	C721.536682,116.832489 721.876709,115.222275 722.771362,113.305717 
	C722.908020,112.522438 723.044678,111.739151 723.498047,110.265923 
	C723.980103,109.103523 724.462158,107.941132 725.728760,106.808044 
	C726.425476,107.126610 727.122253,107.445168 727.646057,108.440224 
	C728.098816,109.962883 728.551636,111.485542 728.910400,113.794151 
	C730.195679,117.847496 731.563782,121.876770 732.750061,125.958900 
	C735.773193,136.361801 738.677185,146.799500 741.754272,157.186157 
	C742.029114,158.113708 743.129150,159.332001 743.992615,159.465317 
	C750.926697,160.535797 757.896057,161.377945 765.147644,162.328308 
	C765.147644,160.018921 765.417358,158.805435 765.104248,157.767822 
	C762.921448,150.534134 760.632202,143.332321 758.348328,136.129395 
	C756.536438,130.414871 754.683655,124.713295 752.822510,118.421005 
	C752.450806,117.988235 752.079102,117.555458 751.706116,116.389580 
	C751.537476,115.934380 751.368835,115.479179 751.383240,114.394257 
	C750.835876,113.301651 750.288574,112.209045 749.769653,110.409065 
	C749.500305,109.271179 749.230957,108.133293 748.969971,106.386879 
	C748.575378,105.957626 748.180847,105.528366 747.789246,104.333794 
	C746.867126,101.220665 745.945007,98.107536 745.041504,94.381592 
	C744.660583,93.936714 744.279663,93.491829 743.815979,92.327057 
	C743.615906,91.889870 743.415833,91.452682 743.400085,90.315361 
	C743.261169,88.875748 743.122314,87.436142 743.280029,85.407845 
	C743.285889,84.542130 743.291809,83.676414 743.896790,82.328583 
	C744.282104,81.789017 744.823914,81.303040 745.029724,80.702019 
	C749.739319,66.945869 754.461426,53.193584 759.068115,39.402798 
	C760.925781,33.841385 762.515747,28.190535 764.442993,21.874138 
	C757.538574,21.874138 751.577454,21.770287 745.627930,21.985542 
	C744.730469,22.018011 743.489136,23.381542 743.087158,24.398310 
	C741.334534,28.832159 739.718811,33.328781 738.266907,37.870876 
	C736.022888,44.891430 733.953125,51.967693 731.495361,59.674210 
	C731.426025,60.150345 731.356689,60.626480 730.769836,61.408382 
	C730.544556,61.938290 730.319275,62.468201 729.767273,63.527122 
	C728.931763,64.651505 728.096191,65.775879 727.106262,66.314613 
	C726.737549,65.876076 726.368835,65.437538 725.909668,64.286186 
	C725.691040,63.863621 725.472473,63.441055 725.421936,62.379570 
	C725.026001,61.213161 724.630005,60.046757 724.121033,58.166100 
	C723.740540,56.777195 723.360046,55.388290 722.982483,53.389389 
	C722.585693,52.957748 722.188904,52.526104 721.792786,51.391598 
	C721.539062,50.259960 721.285278,49.128323 721.025513,47.287579 
	C720.467163,46.537998 719.908875,45.788418 719.569092,44.547417 
	C719.432251,44.040123 719.295410,43.532829 719.254517,42.491135 
	C719.185852,42.323689 719.117126,42.156239 719.089783,41.272785 
	C718.542664,40.519272 717.995483,39.765762 717.540100,38.266376 
	C716.003601,32.949001 714.467163,27.631630 712.826355,21.953035 
	C707.169556,21.953035 701.589478,21.953035 695.196899,21.784748 
	C693.432922,21.784748 691.668945,21.784748 688.756653,21.784748 
	C689.902832,23.696735 690.564331,24.800241 691.268982,26.607540 
	C691.541931,27.736259 691.814819,28.864979 692.087952,30.567299 
	C692.589417,31.121078 693.090881,31.674860 693.459778,32.962212 
	C694.194702,34.675209 694.929688,36.388206 695.540039,38.841507 
	C695.700012,39.561119 695.860046,40.280727 696.028442,41.608681 
	C696.416748,42.045124 696.805054,42.481571 697.245972,43.623585 
	C697.542114,44.746742 697.838257,45.869900 698.204407,47.655666 
	C698.723389,48.372570 699.242371,49.089470 699.647217,49.889816 
	C699.647217,49.889816 699.730408,50.004196 699.612732,50.815933 
	C700.323792,52.539726 701.034851,54.263519 701.585999,56.605328 
	C701.950500,57.527798 702.315063,58.450272 702.686584,59.389065 
M296.079590,21.712132 
	C292.396851,21.779079 288.714081,21.846029 284.147858,21.761782 
	C281.765381,21.865379 279.382904,21.968979 276.429962,22.074364 
	C276.247589,22.716621 276.065247,23.358879 275.637970,24.845026 
	C275.512146,26.598347 275.386322,28.351669 274.671112,30.582506 
	C274.356445,33.388805 274.041809,36.195103 273.389771,39.641563 
	C273.317566,40.116669 273.245361,40.591770 272.688538,41.382706 
	C272.546234,41.921249 272.403900,42.459793 271.858185,43.751495 
	C271.622528,46.521545 271.386871,49.291592 270.623230,52.405998 
	C270.368134,53.959797 270.113037,55.513596 269.629547,57.786816 
	C269.447266,59.536362 269.264984,61.285904 268.536163,63.437599 
	C268.357788,64.291496 268.179443,65.145393 267.721771,66.775085 
	C267.545319,69.209740 267.368866,71.644402 266.708252,74.403000 
	C266.534302,74.934364 266.360352,75.465729 265.817291,76.764870 
	C265.606384,79.534332 265.395508,82.303795 264.701721,85.396614 
	C264.537323,85.930374 264.372894,86.464134 263.851654,87.750694 
	C263.632629,90.528786 263.413605,93.306870 262.665649,96.496941 
	C262.463654,97.330086 262.261627,98.163231 261.730499,99.749542 
	C261.584839,102.204849 261.439178,104.660149 260.765198,107.525299 
	C260.526886,108.349243 260.288574,109.173195 259.736603,110.781998 
	C259.500275,113.525841 259.263947,116.269684 258.515594,119.321465 
	C258.370850,119.880432 258.226105,120.439392 257.750458,121.748085 
	C256.969971,127.461395 256.259430,133.185486 255.381119,138.883713 
	C254.902481,141.988937 256.009064,143.244583 259.140350,142.938324 
	C263.607880,142.501373 268.106842,142.324326 272.546143,141.704849 
	C273.619904,141.555008 275.152618,140.248123 275.377258,139.231018 
	C276.333557,134.901077 276.880127,130.480515 277.571991,126.092354 
	C278.201019,122.102592 279.657196,119.232941 284.550110,119.511101 
	C289.189789,119.774887 293.892822,119.857109 298.505829,119.396500 
	C303.193817,118.928413 304.683472,121.455780 305.361511,125.244492 
	C306.086243,129.294174 307.003998,133.335312 307.336456,137.420929 
	C307.600494,140.666092 309.278809,141.217331 311.944550,141.071213 
	C316.593475,140.816360 321.245209,140.543060 325.898804,140.468369 
	C329.001770,140.418564 330.110748,139.034836 329.538940,136.082657 
	C328.881195,132.686813 328.191986,129.296204 327.596008,125.889397 
	C325.328644,112.929031 323.093353,99.963051 320.908081,86.414032 
	C320.575775,85.956886 320.243469,85.499748 319.900177,84.256172 
	C319.632904,82.170807 319.365631,80.085442 319.284241,77.284569 
	C318.813477,76.210701 318.342743,75.136826 317.857910,73.224686 
	C317.495361,70.482727 317.132843,67.740776 316.811798,64.420395 
	C316.474976,63.976963 316.138153,63.533531 315.796051,62.330029 
	C315.569183,60.568787 315.342316,58.807541 315.325867,56.484898 
	C314.782227,55.035530 314.238556,53.586166 313.705292,51.303993 
	C313.436584,48.869411 313.167908,46.434826 312.961548,43.410709 
	C312.636749,42.942394 312.311951,42.474075 311.969238,41.252186 
	C311.695251,39.521030 311.421265,37.789875 311.360657,35.489632 
	C310.867004,34.012569 310.373352,32.535503 309.850708,30.276114 
	C309.621948,29.529791 309.393188,28.783468 309.379364,27.283218 
	C308.921539,25.368240 310.955078,22.333523 306.105682,21.812122 
	C303.061951,21.852715 300.018219,21.893307 296.079590,21.712132 
M579.743469,22.213589 
	C576.150940,22.127451 572.558411,22.041313 568.052124,21.751324 
	C553.332214,21.751324 538.612305,21.751324 523.516296,21.751324 
	C523.516296,24.477417 523.516541,26.287371 523.516235,28.097324 
	C523.513611,44.911911 523.514648,61.726498 523.507263,78.541084 
	C523.498535,98.185822 523.434692,117.830849 523.555115,137.474777 
	C523.565430,139.153793 524.631958,142.193359 525.460449,142.283691 
	C531.976562,142.994049 538.554199,143.139725 545.473572,143.476913 
	C545.473572,141.137604 545.472595,139.829758 545.473755,138.521927 
	C545.485596,125.369995 545.476929,112.217995 545.518860,99.066162 
	C545.539551,92.573311 545.581665,92.577950 552.290161,92.862396 
	C554.785034,92.968193 557.280579,93.114105 559.776489,93.128029 
	C576.786682,93.222954 572.817261,95.191322 573.459656,79.706833 
	C573.612488,76.023590 572.147827,74.553474 568.605347,74.486092 
	C562.780762,74.375290 556.954041,73.863297 551.138123,73.986542 
	C546.912903,74.076080 545.218384,72.857704 545.419861,68.329659 
	C545.774719,60.354408 545.493958,52.351795 545.536194,44.360943 
	C545.544495,42.787167 545.809998,41.214745 545.955261,39.658787 
	C550.361694,39.466125 554.166199,39.299782 558.892273,39.349091 
	C565.611694,39.239056 572.331116,39.129021 579.842285,38.841908 
	C579.957214,33.554340 580.072144,28.266769 579.743469,22.213589 
M506.875214,98.415192 
	C506.556793,97.956413 506.238342,97.497635 505.889984,96.168022 
	C505.645630,94.448456 505.401306,92.728897 505.373688,90.354210 
	C504.892822,88.913849 504.411957,87.473488 503.906403,85.219002 
	C503.576141,82.478317 503.245880,79.737625 502.979156,76.397949 
	C502.621674,75.946785 502.264221,75.495613 501.907104,74.232056 
	C501.614380,71.821259 501.321655,69.410454 501.156860,66.327019 
	C500.750702,65.561768 500.344513,64.796516 499.903015,63.216316 
	C499.540344,60.477631 499.177673,57.738945 498.876343,54.416512 
	C498.538391,53.965652 498.200439,53.514790 497.864105,52.305111 
	C497.628967,50.557186 497.393829,48.809265 497.381470,46.498936 
	C496.859192,45.028233 496.336914,43.557526 495.828064,41.277943 
	C495.537354,38.852188 495.246613,36.426430 495.027374,33.181320 
	C494.486023,30.440903 494.214203,27.604799 493.289673,25.000441 
	C492.827606,23.698816 491.196075,21.921671 490.054688,21.892776 
	C480.921356,21.661552 471.777496,21.733459 462.640930,21.916821 
	C461.705109,21.935602 460.796173,23.294285 459.643188,24.754280 
	C459.448944,26.511141 459.254700,28.268003 458.460419,30.510954 
	C458.255432,32.005276 458.050446,33.499596 457.603149,35.713531 
	C457.378632,37.465633 457.154114,39.217735 456.416656,41.288620 
	C456.304718,41.858719 456.192749,42.428814 455.748230,43.766239 
	C455.590363,46.212517 455.432495,48.658794 454.785889,51.419090 
	C454.600189,51.944958 454.414490,52.470825 453.894196,53.600616 
	C453.897308,54.054993 453.900452,54.509369 453.659668,55.340523 
	C453.721588,55.917114 453.783508,56.493706 453.619965,57.754742 
	C453.454346,59.186390 453.288757,60.618038 452.636749,62.375011 
	C452.488312,62.916100 452.339874,63.457188 451.833252,64.767365 
	C451.561554,67.514778 451.289856,70.262192 450.504944,73.315514 
	C450.384247,73.876633 450.263550,74.437752 449.781494,75.765442 
	C449.513245,78.507568 449.244995,81.249702 448.433136,84.321030 
	C448.239899,85.903229 448.046631,87.485420 447.623505,89.820473 
	C446.908081,93.879120 446.269623,97.953224 445.457947,101.992531 
	C444.419128,107.162140 443.072296,112.274200 442.163544,117.464516 
	C440.919403,124.570320 439.962372,131.726379 438.705322,140.029953 
	C445.329987,140.029953 451.112305,140.133087 456.882904,139.920135 
	C457.761200,139.887726 459.129242,138.509674 459.340546,137.549347 
	C460.261139,133.364792 461.005219,129.123688 461.491364,124.866341 
	C461.949524,120.853783 463.647095,118.892296 467.944519,119.187706 
	C472.425476,119.495720 476.938324,119.337090 481.437195,119.386299 
	C487.524384,119.452896 488.829865,120.780365 489.506866,126.743980 
	C489.971405,130.836258 490.744354,134.903305 491.606018,138.933167 
	C491.796936,139.826187 492.923645,141.175720 493.649536,141.195221 
	C500.211151,141.371429 506.779480,141.298355 514.224976,141.298355 
	C512.345947,130.408051 510.585205,120.203690 508.881866,109.415184 
	C508.546356,108.963341 508.210846,108.511497 507.850067,107.221588 
	C507.499084,104.480804 507.148102,101.740028 506.875214,98.415192 
M407.887726,124.493958 
	C407.886169,128.159576 407.685486,131.841965 407.991852,135.481659 
	C408.098083,136.743576 409.414368,138.903763 410.258942,138.943756 
	C416.508148,139.239746 422.777832,139.104034 429.165253,139.104034 
	C429.165253,99.968452 429.165253,61.086498 429.165253,21.714403 
	C421.645874,21.714403 414.502167,21.641687 407.360565,21.732677 
	C398.288513,21.848263 398.298401,21.906370 397.462769,30.771347 
	C397.369995,31.755623 397.096954,32.722683 396.911407,33.698463 
	C395.124878,43.094486 393.213654,52.469017 391.588226,61.892841 
	C389.933167,71.488609 388.634918,81.145645 387.014923,90.747925 
	C386.557831,93.457191 385.519745,96.068428 384.748108,98.724632 
	C382.507599,89.467072 381.053680,80.379150 379.404297,71.326843 
	C376.686493,56.410809 373.947510,41.496330 370.915466,26.642834 
	C370.545868,24.832170 368.378906,22.079584 366.937073,22.010382 
	C357.997650,21.581333 349.027405,21.794525 339.909119,21.794525 
	C339.909119,61.393436 339.909119,100.430054 339.909119,139.612579 
	C344.652618,139.612579 348.977966,139.398117 353.272186,139.672043 
	C357.692749,139.954025 359.267609,138.673264 359.191833,133.829742 
	C358.884399,114.175667 359.073700,94.513565 359.133850,74.854591 
	C359.138123,73.459526 359.578735,72.065796 359.816467,70.671440 
	C362.270966,78.592964 364.004669,86.273300 365.368683,94.018745 
	C367.599304,106.685196 369.354523,119.440964 371.874542,132.046249 
	C372.391632,134.632889 371.596863,139.346436 376.657959,139.424149 
	C381.822235,139.503479 386.993866,139.583008 392.149506,139.362915 
	C393.262695,139.315399 395.110443,138.137161 395.281769,137.227692 
	C396.839661,128.957703 398.140961,120.638100 399.438080,112.320641 
	C400.938660,102.698845 402.292114,93.053734 403.846100,83.440842 
	C404.503357,79.375099 405.509369,75.365746 406.356873,71.330765 
	C406.867035,71.368111 407.377197,71.405457 407.887360,71.442802 
	C407.887360,88.793724 407.887360,106.144638 407.887726,124.493958 
M22.774046,112.499985 
	C22.747406,127.495773 22.728195,142.491577 22.685946,157.487320 
	C22.679754,159.684082 22.272615,162.230240 25.671965,161.926758 
	C30.967131,161.454025 36.234081,160.665146 41.529282,160.192978 
	C44.736889,159.906952 45.571636,158.332504 45.527500,155.258255 
	C45.367268,144.096909 45.766346,132.921036 45.360046,121.772308 
	C45.144672,115.862564 47.450142,111.281349 50.857487,106.041870 
	C51.843304,107.683083 52.763638,108.812889 53.261280,110.105431 
	C58.785591,124.453957 64.154869,138.863388 69.848145,153.143906 
	C70.474106,154.713974 72.855858,156.591934 74.424606,156.593155 
	C79.552078,156.597122 84.673363,155.702286 89.810265,155.341446 
	C93.603127,155.075012 94.387115,153.207535 93.077965,149.991562 
	C84.281586,128.383011 75.386032,106.813927 66.793137,85.124870 
	C65.893967,82.855301 65.917542,79.492813 66.942833,77.308563 
	C72.724243,64.992035 78.957108,52.887794 85.006271,40.696400 
	C87.987869,34.687313 90.905350,28.646420 94.199715,21.908422 
	C86.634674,21.908422 80.005066,21.751076 73.396492,22.053493 
	C72.207169,22.107920 70.700302,23.850349 70.031288,25.165165 
	C67.020119,31.083042 64.233932,37.116341 61.411469,43.129078 
	C56.507610,53.575878 51.636841,64.038208 46.752193,74.494026 
	C45.618935,72.614906 45.467525,70.886200 45.464119,69.157188 
	C45.436550,55.160877 45.399174,41.164360 45.455326,27.168268 
	C45.469093,23.735746 44.960045,21.335022 40.562817,21.710688 
	C36.592602,22.049870 32.545509,22.071323 28.578724,21.715511 
	C24.006069,21.305353 22.635223,22.879944 22.669468,27.522501 
	C22.875948,55.513729 22.772924,83.507240 22.774046,112.499985 
M629.604187,149.070435 
	C634.425293,149.270813 639.255371,149.353699 644.064087,149.717438 
	C646.767944,149.921967 647.629761,148.861954 647.556580,146.313919 
	C647.442017,142.322327 647.378296,138.319031 647.555725,134.332367 
	C647.712708,130.804977 646.036621,129.754120 642.779907,129.589432 
	C634.476318,129.169540 626.192627,128.273544 617.886963,128.010986 
	C613.524719,127.873062 611.972595,126.664436 612.000061,121.935860 
	C612.181702,90.645256 612.011047,59.352615 611.955750,28.060633 
	C611.952332,26.126749 611.955261,24.192856 611.955261,22.121307 
	C604.170654,22.121307 597.107422,22.121307 589.876282,22.121307 
	C589.753601,23.427225 589.583496,24.396679 589.582947,25.366224 
	C589.561340,64.148590 589.586426,102.931046 589.485352,141.713181 
	C589.477478,144.731766 590.446594,145.772797 593.403809,145.993057 
	C605.171997,146.869614 616.924561,147.955368 629.604187,149.070435 
M655.518005,28.670355 
	C655.517883,51.304756 655.522400,73.939156 655.516052,96.573555 
	C655.511414,113.049950 655.613037,129.527924 655.395630,146.001617 
	C655.340820,150.156631 656.725464,151.631317 660.799805,151.542770 
	C664.437500,151.463745 668.119080,151.807571 671.727417,152.333984 
	C677.597229,153.190308 677.583740,153.317398 677.578796,147.374237 
	C677.545471,107.597755 677.509766,67.821274 677.475159,28.044794 
	C677.473450,26.098827 677.474915,24.152859 677.474915,22.034838 
	C669.917053,22.034838 662.991028,22.034838 655.518860,22.034838 
	C655.518860,24.121820 655.518860,25.921505 655.518005,28.670355 
z"/>
<path fill="#D81A27" opacity="1.000000" stroke="none" 
	d="
M407.887543,123.994759 
	C407.887360,106.144638 407.887360,88.793724 407.887360,71.442802 
	C407.377197,71.405457 406.867035,71.368111 406.356873,71.330765 
	C405.509369,75.365746 404.503357,79.375099 403.846100,83.440842 
	C402.292114,93.053734 400.938660,102.698845 399.438080,112.320641 
	C398.140961,120.638100 396.839661,128.957703 395.281769,137.227692 
	C395.110443,138.137161 393.262695,139.315399 392.149506,139.362915 
	C386.993866,139.583008 381.822235,139.503479 376.657959,139.424149 
	C371.596863,139.346436 372.391632,134.632889 371.874542,132.046249 
	C369.354523,119.440964 367.599304,106.685196 365.368683,94.018745 
	C364.004669,86.273300 362.270966,78.592964 359.816467,70.671440 
	C359.578735,72.065796 359.138123,73.459526 359.133850,74.854591 
	C359.073700,94.513565 358.884399,114.175667 359.191833,133.829742 
	C359.267609,138.673264 357.692749,139.954025 353.272186,139.672043 
	C348.977966,139.398117 344.652618,139.612579 339.909119,139.612579 
	C339.909119,100.430054 339.909119,61.393436 339.909119,21.794525 
	C349.027405,21.794525 357.997650,21.581333 366.937073,22.010382 
	C368.378906,22.079584 370.545868,24.832170 370.915466,26.642834 
	C373.947510,41.496330 376.686493,56.410809 379.404297,71.326843 
	C381.053680,80.379150 382.507599,89.467072 384.748108,98.724632 
	C385.519745,96.068428 386.557831,93.457191 387.014923,90.747925 
	C388.634918,81.145645 389.933167,71.488609 391.588226,61.892841 
	C393.213654,52.469017 395.124878,43.094486 396.911407,33.698463 
	C397.096954,32.722683 397.369995,31.755623 397.462769,30.771347 
	C398.298401,21.906370 398.288513,21.848263 407.360565,21.732677 
	C414.502167,21.641687 421.645874,21.714403 429.165253,21.714403 
	C429.165253,61.086498 429.165253,99.968452 429.165253,139.104034 
	C422.777832,139.104034 416.508148,139.239746 410.258942,138.943756 
	C409.414368,138.903763 408.098083,136.743576 407.991852,135.481659 
	C407.685486,131.841965 407.886169,128.159576 407.887543,123.994759 
z"/>
<path fill="#D71B27" opacity="1.000000" stroke="none" 
	d="
M22.773758,111.999985 
	C22.772924,83.507240 22.875948,55.513729 22.669468,27.522501 
	C22.635223,22.879944 24.006069,21.305353 28.578724,21.715511 
	C32.545509,22.071323 36.592602,22.049870 40.562817,21.710688 
	C44.960045,21.335022 45.469093,23.735746 45.455326,27.168268 
	C45.399174,41.164360 45.436550,55.160877 45.464119,69.157188 
	C45.467525,70.886200 45.618935,72.614906 46.752193,74.494026 
	C51.636841,64.038208 56.507610,53.575878 61.411469,43.129078 
	C64.233932,37.116341 67.020119,31.083042 70.031288,25.165165 
	C70.700302,23.850349 72.207169,22.107920 73.396492,22.053493 
	C80.005066,21.751076 86.634674,21.908422 94.199715,21.908422 
	C90.905350,28.646420 87.987869,34.687313 85.006271,40.696400 
	C78.957108,52.887794 72.724243,64.992035 66.942833,77.308563 
	C65.917542,79.492813 65.893967,82.855301 66.793137,85.124870 
	C75.386032,106.813927 84.281586,128.383011 93.077965,149.991562 
	C94.387115,153.207535 93.603127,155.075012 89.810265,155.341446 
	C84.673363,155.702286 79.552078,156.597122 74.424606,156.593155 
	C72.855858,156.591934 70.474106,154.713974 69.848145,153.143906 
	C64.154869,138.863388 58.785591,124.453957 53.261280,110.105431 
	C52.763638,108.812889 51.843304,107.683083 50.857487,106.041870 
	C47.450142,111.281349 45.144672,115.862564 45.360046,121.772308 
	C45.766346,132.921036 45.367268,144.096909 45.527500,155.258255 
	C45.571636,158.332504 44.736889,159.906952 41.529282,160.192978 
	C36.234081,160.665146 30.967131,161.454025 25.671965,161.926758 
	C22.272615,162.230240 22.679754,159.684082 22.685946,157.487320 
	C22.728195,142.491577 22.747406,127.495773 22.773758,111.999985 
z"/>
<path fill="#DA1A28" opacity="1.000000" stroke="none" 
	d="
M246.870300,43.998947 
	C247.003098,49.032520 247.135910,54.066090 246.948532,59.691269 
	C246.689026,60.949516 246.749695,61.616154 246.810364,62.282791 
	C246.334320,64.952965 245.858292,67.623138 244.927856,70.861160 
	C244.070450,72.246895 243.667435,73.064774 243.264435,73.882652 
	C243.101456,74.539024 242.938477,75.195396 242.243484,76.107147 
	C241.124969,77.207771 240.538467,78.053024 239.951965,78.898277 
	C239.951965,78.898277 239.951324,78.962761 239.611542,79.038330 
	C238.512207,79.801369 237.752655,80.488838 236.993103,81.176300 
	C236.508530,81.693222 236.023956,82.210152 235.124115,82.967430 
	C234.892822,83.810959 235.076813,84.414146 235.260803,85.017319 
	C235.730026,85.175270 236.199249,85.333221 237.031387,85.966988 
	C238.176483,86.903236 238.958649,87.363678 239.740829,87.824112 
	C240.444305,88.401970 241.147797,88.979813 242.047089,90.083038 
	C242.565567,91.051750 242.888229,91.495102 243.210892,91.938454 
	C244.593079,96.281471 246.860992,100.561813 247.173676,104.980507 
	C247.831009,114.269516 247.419693,123.631744 247.548203,132.962524 
	C247.575241,134.924576 247.563934,137.114594 248.393097,138.793121 
	C250.426193,142.908936 248.235077,143.389496 245.013367,143.442993 
	C240.182159,143.523193 235.340775,143.494293 230.524734,143.821274 
	C226.744934,144.077881 225.457169,142.427322 225.466843,138.881927 
	C225.490051,130.384583 225.818359,121.848984 225.122513,113.403053 
	C224.686722,108.113441 222.616379,102.958496 220.907593,97.147537 
	C219.704025,96.148773 218.872330,95.745590 218.040634,95.342400 
	C217.876953,95.371346 217.712952,95.427399 217.549652,95.425385 
	C204.978333,95.270546 204.912460,95.269638 204.804459,108.035561 
	C204.711655,119.004921 204.665802,129.978104 204.870285,140.944534 
	C204.934784,144.403809 203.886368,145.571869 200.399979,145.648117 
	C195.933609,145.745804 191.472336,146.462967 187.027878,147.055801 
	C183.240952,147.560898 181.582748,146.317612 181.615494,142.233490 
	C181.784683,121.126282 181.759506,100.017509 182.162689,78.289688 
	C182.363052,76.447151 182.202850,75.224220 182.042648,74.001282 
	C181.966949,57.972248 181.891251,41.943218 182.374619,25.457993 
	C185.985596,24.410261 190.041580,26.669359 191.634979,21.936989 
	C200.452118,21.851654 209.269241,21.766319 218.590103,22.032566 
	C219.470169,22.771246 219.846497,23.158346 220.222839,23.545444 
	C220.481308,23.011360 220.739777,22.477274 220.998230,21.943188 
	C222.069382,21.926514 223.140518,21.909843 224.636658,22.354900 
	C226.876511,27.736462 228.507797,27.993902 232.403687,23.975317 
	C237.443649,25.629354 241.279022,28.666431 243.318817,34.256626 
	C243.838745,35.938087 244.498856,36.967068 245.158966,37.996040 
	C245.459137,39.089458 245.759293,40.182877 245.995911,41.813049 
	C246.244995,42.899517 246.557648,43.449234 246.870300,43.998947 
M223.546234,43.189522 
	C222.681702,42.465836 221.817154,41.742146 220.232819,40.791283 
	C215.420731,40.247803 210.608627,39.704323 205.043518,39.498020 
	C204.382004,40.753853 203.165482,42.001408 203.146606,43.266830 
	C202.992752,53.583878 202.986191,63.905788 203.191879,74.221100 
	C203.210861,75.172516 205.015533,76.088333 206.839325,76.858246 
	C208.844849,76.811829 210.850372,76.765411 213.250015,76.915649 
	C213.833023,76.630173 214.416031,76.344688 215.640198,75.682213 
	C219.966064,74.791031 223.027878,72.518219 224.549057,67.811714 
	C224.643646,66.859818 224.738220,65.907913 224.622162,64.046104 
	C224.326080,57.329010 224.029999,50.611912 223.546234,43.189522 
M199.496933,24.640772 
	C199.402512,24.835173 199.308090,25.029573 199.213669,25.223970 
	C199.335953,25.263071 199.458237,25.302174 199.580521,25.341276 
	C199.626526,25.130962 199.672546,24.920649 199.496933,24.640772 
z"/>
<path fill="#DA1A27" opacity="1.000000" stroke="none" 
	d="
M271.151215,52.061642 
	C271.386871,49.291592 271.622528,46.521545 272.237366,43.276054 
	C272.802063,42.222698 272.987610,41.644787 273.173126,41.066872 
	C273.245361,40.591770 273.317566,40.116669 273.753479,39.069977 
	C274.498291,35.700588 274.879395,32.902790 275.260498,30.104990 
	C275.386322,28.351669 275.512146,26.598347 275.913849,24.257755 
	C276.459961,23.137850 276.730194,22.605215 277.000427,22.072578 
	C279.382904,21.968979 281.765381,21.865379 284.316437,22.010204 
	C283.602844,22.984163 282.720703,23.709700 281.529633,24.689289 
	C291.250854,25.866980 300.207672,26.952063 309.164459,28.037146 
	C309.393188,28.783468 309.621948,29.529791 309.753662,30.947742 
	C310.153473,33.099152 310.650391,34.578934 311.147278,36.058720 
	C311.421265,37.789875 311.695251,39.521030 311.916565,41.827667 
	C312.208954,42.935513 312.554077,43.467880 312.899200,44.000244 
	C313.167908,46.434826 313.436584,48.869411 313.647766,51.999779 
	C314.098633,54.145809 314.607025,55.596050 315.115448,57.046295 
	C315.342316,58.807541 315.569183,60.568787 315.757568,62.904922 
	C316.069458,63.986149 316.419891,64.492485 316.770294,64.998817 
	C317.132843,67.740776 317.495361,70.482727 317.746826,73.918388 
	C318.123260,75.741417 318.610840,76.870743 319.098389,78.000076 
	C319.365631,80.085442 319.632904,82.170807 319.852539,84.846375 
	C320.151978,85.957436 320.499054,86.478294 320.846100,86.999161 
	C323.093353,99.963051 325.328644,112.929031 327.596008,125.889397 
	C328.191986,129.296204 328.881195,132.686813 329.538940,136.082657 
	C330.110748,139.034836 329.001770,140.418564 325.898804,140.468369 
	C321.245209,140.543060 316.593475,140.816360 311.944550,141.071213 
	C309.278809,141.217331 307.600494,140.666092 307.336456,137.420929 
	C307.003998,133.335312 306.086243,129.294174 305.361511,125.244492 
	C304.683472,121.455780 303.193817,118.928413 298.505829,119.396500 
	C293.892822,119.857109 289.189789,119.774887 284.550110,119.511101 
	C279.657196,119.232941 278.201019,122.102592 277.571991,126.092354 
	C276.880127,130.480515 276.333557,134.901077 275.377258,139.231018 
	C275.152618,140.248123 273.619904,141.555008 272.546143,141.704849 
	C268.106842,142.324326 263.607880,142.501373 259.140350,142.938324 
	C256.009064,143.244583 254.902481,141.988937 255.381119,138.883713 
	C256.259430,133.185486 256.969971,127.461395 258.105591,121.274948 
	C258.649658,120.205711 258.838623,119.609619 259.027618,119.013527 
	C259.263947,116.269684 259.500275,113.525841 260.118591,110.265030 
	C260.764923,108.870529 261.029205,107.992989 261.293518,107.115456 
	C261.439178,104.660149 261.584839,102.204849 262.119690,99.245178 
	C262.737427,97.855530 262.966003,96.970245 263.194580,96.084961 
	C263.413605,93.306870 263.632629,90.528786 264.211823,87.278107 
	C264.776184,86.228096 264.980408,85.650673 265.184631,85.073257 
	C265.395508,82.303795 265.606384,79.534332 266.185516,76.286522 
	C266.766632,75.231804 266.979523,74.655426 267.192413,74.079056 
	C267.368866,71.644402 267.545319,69.209740 268.090881,66.256882 
	C268.667572,64.837601 268.875153,63.936523 269.082703,63.035450 
	C269.264984,61.285904 269.447266,59.536362 269.927979,57.175781 
	C270.534668,55.063713 270.842926,53.562675 271.151215,52.061642 
M293.497070,51.251362 
	C292.886993,49.730534 292.276917,48.209705 291.666809,46.688881 
	C291.114990,46.797764 290.563141,46.906643 290.011322,47.015526 
	C289.812927,48.328186 289.614532,49.640846 289.511871,51.716843 
	C287.068420,68.333099 284.624969,84.949348 282.168579,101.653435 
	C288.295532,101.653435 294.277069,101.653435 300.571472,101.653435 
	C299.395355,93.123047 298.356903,85.291481 297.226532,77.473213 
	C296.001526,69.000458 294.690826,60.540085 293.497070,51.251362 
z"/>
<path fill="#DA1A28" opacity="1.000000" stroke="none" 
	d="
M455.274597,51.105064 
	C455.432495,48.658794 455.590363,46.212517 456.102966,43.279022 
	C456.614990,42.184479 456.772308,41.577156 456.929596,40.969837 
	C457.154114,39.217735 457.378632,37.465633 458.044189,35.331856 
	C463.509949,33.872852 460.005493,31.799398 459.060486,30.024866 
	C459.254700,28.268003 459.448944,26.511141 460.046295,24.568531 
	C462.029816,25.439322 463.532654,27.239004 465.205139,27.413609 
	C470.304321,27.945967 475.468201,27.936371 480.608215,27.979218 
	C486.247986,28.026232 491.582916,28.629526 494.955902,34.000675 
	C495.246613,36.426430 495.537354,38.852188 495.718933,41.964264 
	C496.126099,44.120838 496.642395,45.591087 497.158691,47.061340 
	C497.393829,48.809265 497.628967,50.557186 497.815247,52.880783 
	C498.115906,53.971058 498.465454,54.485661 498.815002,55.000267 
	C499.177673,57.738945 499.540344,60.477631 499.819580,63.865665 
	C500.167053,65.343231 500.597992,66.171440 501.028931,66.999649 
	C501.321655,69.410454 501.614380,71.821259 501.857788,74.838951 
	C502.177521,75.962875 502.546570,76.479904 502.915619,76.996933 
	C503.245880,79.737625 503.576141,82.478317 503.828918,85.882095 
	C504.219940,88.033234 504.688446,89.521286 505.156952,91.009338 
	C505.401306,92.728897 505.645630,94.448456 505.847748,96.797684 
	C506.136017,97.951317 506.466553,98.475281 506.797089,98.999245 
	C507.148102,101.740028 507.499084,104.480804 507.813416,107.836876 
	C508.126007,108.967888 508.475250,109.483604 508.824493,109.999329 
	C510.585205,120.203690 512.345947,130.408051 514.224976,141.298355 
	C506.779480,141.298355 500.211151,141.371429 493.649536,141.195221 
	C492.923645,141.175720 491.796936,139.826187 491.606018,138.933167 
	C490.744354,134.903305 489.971405,130.836258 489.506866,126.743980 
	C488.829865,120.780365 487.524384,119.452896 481.437195,119.386299 
	C476.938324,119.337090 472.425476,119.495720 467.944519,119.187706 
	C463.647095,118.892296 461.949524,120.853783 461.491364,124.866341 
	C461.005219,129.123688 460.261139,133.364792 459.340546,137.549347 
	C459.129242,138.509674 457.761200,139.887726 456.882904,139.920135 
	C451.112305,140.133087 445.329987,140.029953 438.705322,140.029953 
	C439.962372,131.726379 440.919403,124.570320 442.163544,117.464516 
	C443.072296,112.274200 444.419128,107.162140 445.457947,101.992531 
	C446.269623,97.953224 446.908081,93.879120 447.924438,89.188553 
	C448.475861,87.035027 448.726318,85.513428 448.976776,83.991829 
	C449.244995,81.249702 449.513245,78.507568 450.147034,75.280914 
	C450.681122,74.200783 450.849640,73.605186 451.018127,73.009598 
	C451.289856,70.262192 451.561554,67.514778 452.194641,64.284515 
	C452.745056,63.217682 452.934113,62.633690 453.123169,62.049694 
	C453.288757,60.618038 453.454346,59.186390 453.835419,57.213718 
	C454.001770,56.103046 453.952667,55.533398 453.903595,54.963745 
	C453.900452,54.509369 453.897308,54.054993 454.243103,53.205822 
	C454.819519,52.242374 455.047058,51.673717 455.274597,51.105064 
M473.596405,50.860470 
	C472.698334,57.574184 471.800293,64.287895 470.395721,71.465698 
	C470.109283,72.322952 469.822845,73.180206 469.665161,74.819008 
	C468.460785,82.621994 467.144501,90.411293 466.185944,98.244370 
	C466.058167,99.288315 467.661835,101.475044 468.604462,101.559395 
	C472.891510,101.943008 477.238037,101.917381 481.541016,101.663757 
	C482.456604,101.609795 484.003082,99.997253 484.014191,99.087540 
	C484.052490,95.958748 483.685638,92.800720 483.209778,89.694176 
	C481.291260,77.169792 479.274139,64.660515 477.416595,51.306728 
	C476.852020,49.493580 476.287445,47.680431 475.722839,45.867283 
	C475.136597,45.964691 474.550323,46.062099 473.964050,46.159508 
	C473.820679,47.466145 473.677307,48.772785 473.596405,50.860470 
z"/>
<path fill="#D91A27" opacity="1.000000" stroke="none" 
	d="
M557.970703,39.133438 
	C554.166199,39.299782 550.361694,39.466125 545.955261,39.658787 
	C545.809998,41.214745 545.544495,42.787167 545.536194,44.360943 
	C545.493958,52.351795 545.774719,60.354408 545.419861,68.329659 
	C545.218384,72.857704 546.912903,74.076080 551.138123,73.986542 
	C556.954041,73.863297 562.780762,74.375290 568.605347,74.486092 
	C572.147827,74.553474 573.612488,76.023590 573.459656,79.706833 
	C572.817261,95.191322 576.786682,93.222954 559.776489,93.128029 
	C557.280579,93.114105 554.785034,92.968193 552.290161,92.862396 
	C545.581665,92.577950 545.539551,92.573311 545.518860,99.066162 
	C545.476929,112.217995 545.485596,125.369995 545.473755,138.521927 
	C545.472595,139.829758 545.473572,141.137604 545.473572,143.476913 
	C538.554199,143.139725 531.976562,142.994049 525.460449,142.283691 
	C524.631958,142.193359 523.565430,139.153793 523.555115,137.474777 
	C523.434692,117.830849 523.498535,98.185822 523.507263,78.541084 
	C523.514648,61.726498 523.513611,44.911911 523.516235,28.097324 
	C523.516541,26.287371 523.516296,24.477417 523.516296,21.751324 
	C538.612305,21.751324 553.332214,21.751324 568.769409,22.014091 
	C570.354187,22.926678 571.221619,23.576498 572.446838,24.494370 
	C569.488953,26.960741 566.678162,28.970541 564.286438,31.394005 
	C561.957886,33.753464 560.058533,36.536423 557.970703,39.133438 
z"/>
<path fill="#D91A26" opacity="1.000000" stroke="none" 
	d="
M629.143555,149.017029 
	C616.924561,147.955368 605.171997,146.869614 593.403809,145.993057 
	C590.446594,145.772797 589.477478,144.731766 589.485352,141.713181 
	C589.586426,102.931046 589.561340,64.148590 589.582947,25.366224 
	C589.583496,24.396679 589.753601,23.427225 589.876282,22.121307 
	C597.107422,22.121307 604.170654,22.121307 611.955261,22.121307 
	C611.955261,24.192856 611.952332,26.126749 611.955750,28.060633 
	C612.011047,59.352615 612.181702,90.645256 612.000061,121.935860 
	C611.972595,126.664436 613.524719,127.873062 617.886963,128.010986 
	C626.192627,128.273544 634.476318,129.169540 642.779907,129.589432 
	C646.036621,129.754120 647.712708,130.804977 647.555725,134.332367 
	C647.378296,138.319031 647.442017,142.322327 647.556580,146.313919 
	C647.629761,148.861954 646.767944,149.921967 644.064087,149.717438 
	C639.255371,149.353699 634.425293,149.270813 629.143555,149.017029 
z"/>
<path fill="#DD1B29" opacity="1.000000" stroke="none" 
	d="
M165.044464,33.996330 
	C165.857849,35.866528 166.671219,37.736729 167.361786,40.311150 
	C167.838593,42.010288 168.438217,43.005207 169.037842,44.000130 
	C169.193756,47.131359 169.483337,50.262550 169.484207,53.393826 
	C169.490387,75.621483 169.437500,97.849167 169.112854,120.753204 
	C168.438934,123.245277 168.055557,125.060982 167.672195,126.876694 
	C167.599854,127.724251 167.527496,128.571808 166.928955,129.732727 
	C163.608047,131.359787 160.615875,132.371384 158.056122,134.044525 
	C150.740402,138.826340 143.098343,143.224915 134.264328,143.377975 
	C124.098801,143.554123 113.582794,146.433517 103.813057,141.005493 
	C103.740189,138.953842 103.667320,136.902176 104.082100,134.377121 
	C109.294319,133.568573 111.432030,129.952698 112.945724,126.374031 
	C113.720840,124.541512 112.629478,121.923004 112.394394,119.658401 
	C112.258362,118.347923 111.797653,116.944016 112.108902,115.744560 
	C112.555817,114.022278 113.573608,112.448128 114.347702,110.810738 
	C116.292038,111.781662 119.300812,112.297974 119.951469,113.821411 
	C121.175598,116.687592 121.308319,120.127968 121.391708,123.342667 
	C121.473862,126.509773 121.364815,129.435791 125.720764,130.368927 
	C128.004150,130.860764 130.013474,131.005524 132.359695,131.320984 
	C134.949371,131.541214 137.202148,131.590759 139.893600,131.683777 
	C146.949905,133.379181 148.366287,127.719955 151.421997,123.334145 
	C150.376389,122.069031 149.094360,120.517883 147.709961,118.541855 
	C147.683853,116.089096 147.760117,114.061218 148.137238,111.949379 
	C152.841461,110.109352 154.045700,106.466454 153.963226,102.200279 
	C153.825470,95.073837 152.753021,87.855705 153.565948,80.849274 
	C154.516769,72.654152 153.268158,64.965050 151.084854,57.293648 
	C150.606628,55.613224 148.725235,54.332134 147.508789,52.587719 
	C147.539108,51.935078 147.550674,51.561855 147.744400,50.923019 
	C147.598419,49.438221 147.270279,48.219040 146.855621,46.725616 
	C146.796158,46.070370 146.823212,45.689365 146.947495,44.929638 
	C147.801300,41.844833 148.383743,38.916691 144.834351,37.977180 
	C140.054291,36.711914 135.157227,35.326817 130.269028,35.152481 
	C120.926514,34.819279 116.802475,42.242966 120.536919,50.756119 
	C122.035202,54.171635 122.472054,58.331921 122.343483,62.117615 
	C122.142036,68.049141 120.121429,74.021912 120.569496,79.846588 
	C121.139290,87.253746 120.372025,94.085762 117.014290,100.597725 
	C116.293602,101.995422 114.718140,102.952377 113.536453,104.112373 
	C113.224365,102.477852 112.690910,100.845055 112.678101,99.208191 
	C112.669579,98.118896 113.664124,97.046921 113.763817,95.927490 
	C114.378265,89.027695 114.905624,82.119331 115.379128,75.208145 
	C115.618652,71.712074 115.243332,68.110512 115.960464,64.729401 
	C116.601959,61.704926 116.832405,59.400108 114.293930,57.101696 
	C110.175224,53.372498 110.100853,48.348770 111.868805,43.743629 
	C112.958984,40.903954 112.807617,39.276211 110.871132,37.180923 
	C109.035408,35.194656 107.932838,31.913795 110.994568,30.947142 
	C116.251328,29.287464 121.948959,28.083305 127.410286,28.261114 
	C133.618271,28.463232 135.094666,28.250612 136.999954,21.887592 
	C138.719070,21.845236 140.438171,21.802879 142.584213,22.124287 
	C143.015671,22.665098 143.020187,22.842146 143.232162,23.288654 
	C145.899719,23.580866 148.359833,23.603619 150.819946,23.626373 
	C151.391830,23.603928 151.963715,23.581482 152.936371,24.037319 
	C155.427048,25.623026 157.516983,26.730448 159.606903,27.837868 
	C160.333862,28.377190 161.060806,28.916513 161.946701,30.057615 
	C163.085251,31.771706 164.064850,32.884018 165.044464,33.996330 
z"/>
<path fill="#D91927" opacity="1.000000" stroke="none" 
	d="
M655.518433,28.195770 
	C655.518860,25.921505 655.518860,24.121820 655.518860,22.034838 
	C662.991028,22.034838 669.917053,22.034838 677.474915,22.034838 
	C677.474915,24.152859 677.473450,26.098827 677.475159,28.044794 
	C677.509766,67.821274 677.545471,107.597755 677.578796,147.374237 
	C677.583740,153.317398 677.597229,153.190308 671.727417,152.333984 
	C668.119080,151.807571 664.437500,151.463745 660.799805,151.542770 
	C656.725464,151.631317 655.340820,150.156631 655.395630,146.001617 
	C655.613037,129.527924 655.511414,113.049950 655.516052,96.573555 
	C655.522400,73.939156 655.517883,51.304756 655.518433,28.195770 
z"/>
<path fill="#DA1A28" opacity="1.000000" stroke="none" 
	d="
M125.446686,130.021866 
	C121.364815,129.435791 121.473862,126.509773 121.391708,123.342667 
	C121.308319,120.127968 121.175598,116.687592 119.951469,113.821411 
	C119.300812,112.297974 116.292038,111.781662 114.347702,110.810738 
	C113.573608,112.448128 112.555817,114.022278 112.108902,115.744560 
	C111.797653,116.944016 112.258362,118.347923 112.394394,119.658401 
	C112.629478,121.923004 113.720840,124.541512 112.945724,126.374031 
	C111.432030,129.952698 109.294319,133.568573 104.194336,133.949493 
	C103.712593,124.367569 103.529320,114.739983 103.514832,105.112144 
	C103.476059,79.354744 103.509697,53.597229 103.514496,27.839758 
	C103.514832,26.041809 103.514542,24.243862 103.514542,21.667267 
	C114.608032,21.667267 125.346375,21.667267 136.542328,21.777431 
	C135.094666,28.250612 133.618271,28.463232 127.410286,28.261114 
	C121.948959,28.083305 116.251328,29.287464 110.994568,30.947142 
	C107.932838,31.913795 109.035408,35.194656 110.871132,37.180923 
	C112.807617,39.276211 112.958984,40.903954 111.868805,43.743629 
	C110.100853,48.348770 110.175224,53.372498 114.293930,57.101696 
	C116.832405,59.400108 116.601959,61.704926 115.960464,64.729401 
	C115.243332,68.110512 115.618652,71.712074 115.379128,75.208145 
	C114.905624,82.119331 114.378265,89.027695 113.763817,95.927490 
	C113.664124,97.046921 112.669579,98.118896 112.678101,99.208191 
	C112.690910,100.845055 113.224365,102.477852 113.536453,104.112373 
	C114.718140,102.952377 116.293602,101.995422 117.014290,100.597725 
	C120.372025,94.085762 121.139290,87.253746 120.569496,79.846588 
	C120.121429,74.021912 122.142036,68.049141 122.343483,62.117615 
	C122.472054,58.331921 122.035202,54.171635 120.536919,50.756119 
	C116.802475,42.242966 120.926514,34.819279 130.269028,35.152481 
	C135.157227,35.326817 140.054291,36.711914 144.834351,37.977180 
	C148.383743,38.916691 147.801300,41.844833 146.631073,44.816917 
	C145.164169,44.024483 144.110916,42.966045 142.909943,41.574409 
	C138.824173,38.391251 129.961700,38.243729 125.846100,41.418579 
	C125.648262,43.697041 125.519493,45.518612 125.517296,47.340340 
	C125.483986,74.900833 125.467278,102.461349 125.446686,130.021866 
z"/>
<path fill="#DA1C2A" opacity="1.000000" stroke="none" 
	d="
M748.961548,106.995407 
	C749.230957,108.133293 749.500305,109.271179 749.664795,111.006653 
	C750.106689,112.744156 750.653442,113.884064 751.200134,115.023972 
	C751.368835,115.479179 751.537476,115.934380 751.590698,116.979736 
	C751.315247,118.046799 751.155151,118.523697 750.877075,119.286560 
	C750.772095,120.378426 750.826294,121.186256 750.788940,121.989822 
	C750.726501,123.334267 750.605591,124.675987 750.509277,126.018860 
	C749.327454,125.190811 748.155579,124.348000 746.961548,123.537918 
	C744.755615,122.041298 742.590149,120.474747 740.307800,119.103958 
	C738.127014,117.794167 735.814636,116.704445 733.568298,115.502670 
	C732.039673,114.684845 730.525208,113.840622 729.004395,113.008209 
	C728.551636,111.485542 728.098816,109.962883 727.668335,107.806564 
	C726.775085,107.041512 725.859619,106.910118 724.944153,106.778732 
	C724.462158,107.941132 723.980103,109.103523 723.143555,110.616608 
	C722.527832,110.982948 722.266602,110.996475 721.743774,110.792946 
	C716.676147,108.184196 714.264282,104.489746 714.969299,98.962425 
	C715.177124,97.332832 715.000488,95.654198 715.000000,93.665298 
	C715.000000,92.888878 715.000000,92.445206 715.162292,91.665268 
	C717.698120,82.697449 720.338379,74.182976 726.319702,66.975243 
	C726.842651,66.935455 727.051636,66.917862 727.260681,66.900261 
	C728.096191,65.775879 728.931763,64.651505 730.124146,63.175777 
	C730.749878,62.250500 731.018677,61.676563 731.287415,61.102623 
	C731.356689,60.626480 731.426025,60.150345 731.917358,59.197033 
	C734.253723,56.678844 735.980652,54.401447 738.149597,52.681526 
	C739.549622,51.571404 741.597595,51.278439 743.355164,50.619247 
	C744.047546,52.536942 745.756470,54.779797 745.264221,56.318573 
	C742.472412,65.046455 742.053650,73.840027 743.297729,82.810699 
	C743.291809,83.676414 743.285889,84.542130 742.912720,85.848869 
	C742.768799,87.865097 742.992310,89.440300 743.215820,91.015503 
	C743.415833,91.452682 743.615906,91.889870 743.814758,92.893318 
	C744.216614,93.971191 744.619690,94.482811 745.022827,94.994415 
	C745.945007,98.107536 746.867126,101.220665 747.758240,104.921021 
	C748.138672,106.003967 748.550171,106.499680 748.961548,106.995407 
z"/>
<path fill="#D91A26" opacity="1.000000" stroke="none" 
	d="
M728.957397,113.401184 
	C730.525208,113.840622 732.039673,114.684845 733.568298,115.502670 
	C735.814636,116.704445 738.127014,117.794167 740.307800,119.103958 
	C742.590149,120.474747 744.755615,122.041298 746.961548,123.537918 
	C748.155579,124.348000 749.327454,125.190811 750.509277,126.018860 
	C750.605591,124.675987 750.726501,123.334267 750.788940,121.989822 
	C750.826294,121.186256 750.772095,120.378426 751.186096,119.289627 
	C752.025085,119.006485 752.437012,119.006233 752.848938,119.005981 
	C754.683655,124.713295 756.536438,130.414871 758.348328,136.129395 
	C760.632202,143.332321 762.921448,150.534134 765.104248,157.767822 
	C765.417358,158.805435 765.147644,160.018921 765.147644,162.328308 
	C757.896057,161.377945 750.926697,160.535797 743.992615,159.465317 
	C743.129150,159.332001 742.029114,158.113708 741.754272,157.186157 
	C738.677185,146.799500 735.773193,136.361801 732.750061,125.958900 
	C731.563782,121.876770 730.195679,117.847496 728.957397,113.401184 
z"/>
<path fill="#D51A26" opacity="1.000000" stroke="none" 
	d="
M743.597229,82.569641 
	C742.053650,73.840027 742.472412,65.046455 745.264221,56.318573 
	C745.756470,54.779797 744.047546,52.536942 743.355164,50.619247 
	C741.597595,51.278439 739.549622,51.571404 738.149597,52.681526 
	C735.980652,54.401447 734.253723,56.678844 732.074402,58.870094 
	C733.953125,51.967693 736.022888,44.891430 738.266907,37.870876 
	C739.718811,33.328781 741.334534,28.832159 743.087158,24.398310 
	C743.489136,23.381542 744.730469,22.018011 745.627930,21.985542 
	C751.577454,21.770287 757.538574,21.874138 764.442993,21.874138 
	C762.515747,28.190535 760.925781,33.841385 759.068115,39.402798 
	C754.461426,53.193584 749.739319,66.945869 745.029724,80.702019 
	C744.823914,81.303040 744.282104,81.789017 743.597229,82.569641 
z"/>
<path fill="#DD1B29" opacity="1.000000" stroke="none" 
	d="
M726.005859,66.997437 
	C720.338379,74.182976 717.698120,82.697449 714.781738,91.708794 
	C712.714783,92.245735 711.190674,92.402901 709.666626,92.560059 
	C709.677856,91.903931 709.689148,91.247795 710.055176,90.206802 
	C710.626648,89.221138 710.843384,88.620338 711.060120,88.019531 
	C711.178955,86.905960 711.297791,85.792389 711.462036,84.018097 
	C710.947632,82.229607 710.387817,81.101830 709.828064,79.974060 
	C709.685364,79.515083 709.542664,79.056107 709.516968,78.100891 
	C709.794556,77.413902 709.942810,77.213989 710.313721,76.839569 
	C712.559204,73.333054 712.079834,70.437233 708.948608,67.642616 
	C708.260559,65.188805 707.622375,63.099174 706.964844,60.618404 
	C706.532959,55.413296 704.750854,51.566010 699.730408,50.004196 
	C699.730408,50.004196 699.647217,49.889816 699.648987,49.508606 
	C699.145325,48.415947 698.639893,47.704498 698.134460,46.993050 
	C697.838257,45.869900 697.542114,44.746742 697.257324,43.064064 
	C696.852478,42.003139 696.436218,41.501743 696.020020,41.000343 
	C695.860046,40.280727 695.700012,39.561119 696.040161,38.479042 
	C700.247375,38.115437 703.959290,37.997742 707.660217,38.148098 
	C710.929199,38.280903 714.186096,38.712559 717.448303,39.012260 
	C717.995483,39.765762 718.542664,40.519272 719.034119,41.761902 
	C718.949707,42.528702 719.009705,42.786877 719.158508,43.025539 
	C719.295410,43.532829 719.432251,44.040123 719.514404,45.150986 
	C719.983643,46.501934 720.507568,47.249313 721.031555,47.996689 
	C721.285278,49.128323 721.539062,50.259960 721.765137,51.948772 
	C722.151550,53.003765 722.565491,53.501583 722.979492,53.999393 
	C723.360046,55.388290 723.740540,56.777195 724.027954,58.762871 
	C724.374512,60.579266 724.814148,61.798893 725.253784,63.018509 
	C725.472473,63.441055 725.691040,63.863621 725.951538,64.975723 
	C725.997559,66.109314 726.001709,66.553375 726.005859,66.997437 
M703.726379,42.714317 
	C703.527710,42.815029 703.329102,42.915745 703.130432,43.016476 
	C703.203796,43.118786 703.277222,43.221096 703.350647,43.323399 
	C703.521729,43.182804 703.692871,43.042210 703.726379,42.714317 
z"/>
<path fill="#DD1B29" opacity="1.000000" stroke="none" 
	d="
M715.000000,93.998032 
	C715.000488,95.654198 715.177124,97.332832 714.969299,98.962425 
	C714.264282,104.489746 716.676147,108.184196 721.769897,111.226929 
	C722.110596,112.454590 722.163635,113.033325 722.216675,113.612061 
	C721.876709,115.222275 721.536682,116.832489 720.784546,118.798386 
	C720.096924,119.716637 719.821350,120.279190 719.545715,120.841751 
	C719.520813,121.323586 719.495911,121.805420 719.094360,122.808853 
	C717.660583,125.373077 717.062378,127.928711 715.460144,129.361893 
	C710.708069,133.612488 710.093384,138.820877 710.140259,144.728516 
	C710.155823,146.685791 707.843506,150.008972 706.084900,150.397720 
	C698.805176,152.006882 695.400330,149.286758 693.947876,141.916672 
	C693.756165,140.943878 693.404236,140.002670 693.126526,139.046829 
	C693.209717,138.581940 693.292969,138.117050 693.772705,137.143463 
	C696.439758,133.634064 698.730286,130.648209 700.976807,127.629623 
	C705.991150,120.891731 705.894165,112.784470 707.277100,104.785141 
	C708.373657,103.037415 709.033203,101.390686 710.044556,99.999687 
	C711.567200,97.905251 713.335938,95.989662 715.000000,93.998032 
z"/>
<path fill="#DA1A28" opacity="1.000000" stroke="none" 
	d="
M103.696808,141.426636 
	C113.582794,146.433517 124.098801,143.554123 134.264328,143.377975 
	C143.098343,143.224915 150.740402,138.826340 158.056122,134.044525 
	C160.615875,132.371384 163.608047,131.359787 166.798935,130.026001 
	C161.417648,143.934357 151.080811,150.333572 135.922119,150.352661 
	C127.539429,150.363220 119.171791,152.340378 110.773804,153.201263 
	C103.452286,153.951782 103.432610,153.809372 103.472137,146.338623 
	C103.480057,144.841537 103.542984,143.344727 103.696808,141.426636 
z"/>
<path fill="#DA1B26" opacity="1.000000" stroke="none" 
	d="
M717.494202,38.639320 
	C714.186096,38.712559 710.929199,38.280903 707.660217,38.148098 
	C703.959290,37.997742 700.247375,38.115437 696.102417,38.108891 
	C694.929688,36.388206 694.194702,34.675209 693.624939,32.379856 
	C693.222656,31.196230 692.655212,30.594959 692.087769,29.993692 
	C691.814819,28.864979 691.541931,27.736259 691.448364,26.019983 
	C693.088318,24.272623 694.548889,23.112822 696.009460,21.953028 
	C701.589478,21.953035 707.169556,21.953035 712.826355,21.953035 
	C714.467163,27.631630 716.003601,32.949001 717.494202,38.639320 
z"/>
<path fill="#D41825" opacity="1.000000" stroke="none" 
	d="
M692.816101,139.224762 
	C693.404236,140.002670 693.756165,140.943878 693.947876,141.916672 
	C695.400330,149.286758 698.805176,152.006882 706.084900,150.397720 
	C707.843506,150.008972 710.155823,146.685791 710.140259,144.728516 
	C710.093384,138.820877 710.708069,133.612488 715.460144,129.361893 
	C717.062378,127.928711 717.660583,125.373077 718.967224,123.149384 
	C715.978210,133.265686 712.768738,143.572479 709.437927,153.839920 
	C709.207947,154.548645 708.042725,155.476837 707.364624,155.436020 
	C700.872864,155.045471 694.392395,154.468079 687.199219,153.886963 
	C689.273315,148.225693 690.889526,143.814209 692.816101,139.224762 
z"/>
<path fill="#E11920" opacity="1.000000" stroke="none" 
	d="
M558.431519,39.241264 
	C560.058533,36.536423 561.957886,33.753464 564.286438,31.394005 
	C566.678162,28.970541 569.488953,26.960741 572.446838,24.494370 
	C571.221619,23.576498 570.354187,22.926678 569.226318,22.116016 
	C572.558411,22.041313 576.150940,22.127451 579.700806,22.781813 
	C579.455627,28.573019 579.253052,33.796001 579.050537,39.018986 
	C572.331116,39.129021 565.611694,39.239056 558.431519,39.241264 
z"/>
<path fill="#D61B27" opacity="1.000000" stroke="none" 
	d="
M494.991638,33.590996 
	C491.582916,28.629526 486.247986,28.026232 480.608215,27.979218 
	C475.468201,27.936371 470.304321,27.945967 465.205139,27.413609 
	C463.532654,27.239004 462.029816,25.439322 460.162048,24.206997 
	C460.796173,23.294285 461.705109,21.935602 462.640930,21.916821 
	C471.777496,21.733459 480.921356,21.661552 490.054688,21.892776 
	C491.196075,21.921671 492.827606,23.698816 493.289673,25.000441 
	C494.214203,27.604799 494.486023,30.440903 494.991638,33.590996 
z"/>
<path fill="#D41825" opacity="1.000000" stroke="none" 
	d="
M706.997559,105.000610 
	C705.894165,112.784470 705.991150,120.891731 700.976807,127.629623 
	C698.730286,130.648209 696.439758,133.634064 693.940125,136.829559 
	C695.875244,130.324890 697.983887,123.606758 700.225159,116.933167 
	C701.531250,113.044243 703.049744,109.226654 705.097656,105.190292 
	C706.147522,105.002602 706.572571,105.001602 706.997559,105.000610 
z"/>
<path fill="#D51A27" opacity="1.000000" stroke="none" 
	d="
M309.271912,27.660181 
	C300.207672,26.952063 291.250854,25.866980 281.529633,24.689289 
	C282.720703,23.709700 283.602844,22.984163 284.758179,22.085804 
	C288.714081,21.846029 292.396851,21.779079 296.885559,21.992630 
	C300.794464,22.178816 303.897461,22.084505 307.000427,21.990194 
	C310.955078,22.333523 308.921539,25.368240 309.271912,27.660181 
z"/>
<path fill="#D41825" opacity="1.000000" stroke="none" 
	d="
M710.078613,77.004913 
	C709.942810,77.213989 709.794556,77.413902 709.504639,77.739311 
	C707.200195,71.969009 705.025085,66.064041 703.091431,59.829140 
	C704.549988,60.002655 705.767090,60.506096 706.984253,61.009544 
	C707.622375,63.099174 708.260559,65.188805 709.029541,67.997757 
	C709.466431,71.479691 709.772522,74.242302 710.078613,77.004913 
z"/>
<path fill="#DA1B26" opacity="1.000000" stroke="none" 
	d="
M707.277100,104.785141 
	C706.572571,105.001602 706.147522,105.002602 705.403931,105.011192 
	C705.181519,104.556679 705.277710,104.094566 705.742798,103.159691 
	C706.488831,101.488007 706.865967,100.289093 707.243103,99.090164 
	C707.328186,98.614357 707.413269,98.138550 707.873169,97.126984 
	C708.718506,95.257301 709.189148,93.923378 709.659790,92.589462 
	C709.659790,92.589462 709.655579,92.569901 709.661133,92.564980 
	C711.190674,92.402901 712.714783,92.245735 714.619385,92.045052 
	C715.000000,92.445206 715.000000,92.888878 715.000000,93.665298 
	C713.335938,95.989662 711.567200,97.905251 710.044556,99.999687 
	C709.033203,101.390686 708.373657,103.037415 707.277100,104.785141 
z"/>
<path fill="#DA1B26" opacity="1.000000" stroke="none" 
	d="
M706.964844,60.618401 
	C705.767090,60.506096 704.549988,60.002655 703.006775,59.447472 
	C702.680725,59.395729 702.686584,59.389065 702.708496,59.072792 
	C702.402283,57.833447 702.074097,56.910381 701.745911,55.987312 
	C701.034851,54.263519 700.323792,52.539726 699.671570,50.410065 
	C704.750854,51.566010 706.532959,55.413296 706.964844,60.618401 
z"/>
<path fill="#D91A27" opacity="1.000000" stroke="none" 
	d="
M579.446411,38.930447 
	C579.253052,33.796001 579.455627,28.573019 579.922668,23.164619 
	C580.072144,28.266769 579.957214,33.554340 579.446411,38.930447 
z"/>
<path fill="#D71B27" opacity="1.000000" stroke="none" 
	d="
M232.128815,23.787874 
	C228.507797,27.993902 226.876511,27.736462 225.030426,22.442822 
	C227.284149,22.579487 229.569046,23.089958 232.128815,23.787874 
z"/>
<path fill="#D71B27" opacity="1.000000" stroke="none" 
	d="
M191.248230,21.850821 
	C190.041580,26.669359 185.985596,24.410261 182.485870,25.000586 
	C181.964050,24.551338 181.890045,24.103310 182.371948,23.298107 
	C183.822037,22.860735 184.716217,22.780533 185.610382,22.700333 
	C187.360748,22.388439 189.111130,22.076546 191.248230,21.850821 
z"/>
<path fill="#D51A27" opacity="1.000000" stroke="none" 
	d="
M274.965820,30.343748 
	C274.879395,32.902790 274.498291,35.700588 273.922180,38.749893 
	C274.041809,36.195103 274.356445,33.388805 274.965820,30.343748 
z"/>
<path fill="#D61B27" opacity="1.000000" stroke="none" 
	d="
M458.760437,30.267910 
	C460.005493,31.799398 463.509949,33.872852 458.165344,34.972054 
	C458.050446,33.499596 458.255432,32.005276 458.760437,30.267910 
z"/>
<path fill="#D41825" opacity="1.000000" stroke="none" 
	d="
M695.603149,21.868885 
	C694.548889,23.112822 693.088318,24.272623 691.426758,25.668087 
	C690.564331,24.800241 689.902832,23.696735 688.756653,21.784748 
	C691.668945,21.784748 693.432922,21.784748 695.603149,21.868885 
z"/>
<path fill="#D51B29" opacity="1.000000" stroke="none" 
	d="
M150.577103,23.359392 
	C148.359833,23.603619 145.899719,23.580866 143.574341,23.267002 
	C144.801117,22.679966 145.893158,22.384037 146.985184,22.088108 
	C148.101547,22.422874 149.217896,22.757643 150.577103,23.359392 
z"/>
<path fill="#D51B29" opacity="1.000000" stroke="none" 
	d="
M159.435211,27.520222 
	C157.516983,26.730448 155.427048,25.623026 153.168457,24.216042 
	C155.087708,25.011845 157.175598,26.107208 159.435211,27.520222 
z"/>
<path fill="#D51B29" opacity="1.000000" stroke="none" 
	d="
M167.962830,126.667877 
	C168.055557,125.060982 168.438934,123.245277 168.999847,121.208237 
	C168.869415,122.810959 168.561447,124.635010 167.962830,126.667877 
z"/>
<path fill="#D61B27" opacity="1.000000" stroke="none" 
	d="
M497.270081,46.780136 
	C496.642395,45.591087 496.126099,44.120838 495.712219,42.368706 
	C496.336914,43.557526 496.859192,45.028233 497.270081,46.780136 
z"/>
<path fill="#DA1A27" opacity="1.000000" stroke="none" 
	d="
M306.553040,21.901157 
	C303.897461,22.084505 300.794464,22.178816 297.333008,22.103512 
	C300.018219,21.893307 303.061951,21.852715 306.553040,21.901157 
z"/>
<path fill="#D51A27" opacity="1.000000" stroke="none" 
	d="
M311.253967,35.774178 
	C310.650391,34.578934 310.153473,33.099152 309.768127,31.338903 
	C310.373352,32.535503 310.867004,34.012569 311.253967,35.774178 
z"/>
<path fill="#DA1B26" opacity="1.000000" stroke="none" 
	d="
M725.337891,62.699047 
	C724.814148,61.798893 724.374512,60.579266 724.084473,59.119995 
	C724.630005,60.046757 725.026001,61.213161 725.337891,62.699047 
z"/>
<path fill="#D51A26" opacity="1.000000" stroke="none" 
	d="
M751.291687,114.709114 
	C750.653442,113.884064 750.106689,112.744156 749.650635,111.360344 
	C750.288574,112.209045 750.835876,113.301651 751.291687,114.709114 
z"/>
<path fill="#D61B27" opacity="1.000000" stroke="none" 
	d="
M448.704956,84.156433 
	C448.726318,85.513428 448.475861,87.035027 448.039368,88.812126 
	C448.046631,87.485420 448.239899,85.903229 448.704956,84.156433 
z"/>
<path fill="#D61B27" opacity="1.000000" stroke="none" 
	d="
M505.265320,90.681778 
	C504.688446,89.521286 504.219940,88.033234 503.841278,86.289154 
	C504.411957,87.473488 504.892822,88.913849 505.265320,90.681778 
z"/>
<path fill="#D51A27" opacity="1.000000" stroke="none" 
	d="
M270.887207,52.233818 
	C270.842926,53.562675 270.534668,55.063713 270.042175,56.816071 
	C270.113037,55.513596 270.368134,53.959797 270.887207,52.233818 
z"/>
<path fill="#D51A27" opacity="1.000000" stroke="none" 
	d="
M315.220642,56.765594 
	C314.607025,55.596050 314.098633,54.145809 313.642578,52.416183 
	C314.238556,53.586166 314.782227,55.035530 315.220642,56.765594 
z"/>
<path fill="#D51A26" opacity="1.000000" stroke="none" 
	d="
M743.307983,90.665428 
	C742.992310,89.440300 742.768799,87.865097 742.764404,86.143211 
	C743.122314,87.436142 743.261169,88.875748 743.307983,90.665428 
z"/>
<path fill="#D51A27" opacity="1.000000" stroke="none" 
	d="
M319.191345,77.642319 
	C318.610840,76.870743 318.123260,75.741417 317.753845,74.337524 
	C318.342743,75.136826 318.813477,76.210701 319.191345,77.642319 
z"/>
<path fill="#D41825" opacity="1.000000" stroke="none" 
	d="
M709.732056,80.285614 
	C710.387817,81.101830 710.947632,82.229607 711.461609,83.595779 
	C710.822632,82.755180 710.229370,81.676178 709.732056,80.285614 
z"/>
<path fill="#D71B27" opacity="1.000000" stroke="none" 
	d="
M181.918182,74.390053 
	C182.202850,75.224220 182.363052,76.447151 182.283325,77.834213 
	C181.960175,76.925163 181.876938,75.851990 181.918182,74.390053 
z"/>
<path fill="#D41825" opacity="1.000000" stroke="none" 
	d="
M709.408875,92.791580 
	C709.189148,93.923378 708.718506,95.257301 708.034546,96.800583 
	C708.266846,95.671196 708.712402,94.332451 709.408875,92.791580 
z"/>
<path fill="#D41825" opacity="1.000000" stroke="none" 
	d="
M706.951416,99.243530 
	C706.865967,100.289093 706.488831,101.488007 705.913696,102.848541 
	C706.030396,101.805740 706.345093,100.601318 706.951416,99.243530 
z"/>
<path fill="#D71B27" opacity="1.000000" stroke="none" 
	d="
M245.232300,37.633743 
	C244.498856,36.967068 243.838745,35.938087 243.295074,34.600105 
	C244.042877,35.284546 244.674255,36.277996 245.232300,37.633743 
z"/>
<path fill="#D51B29" opacity="1.000000" stroke="none" 
	d="
M165.046509,33.661774 
	C164.064850,32.884018 163.085251,31.771706 162.056702,30.319504 
	C163.021362,31.095482 164.034973,32.211349 165.046509,33.661774 
z"/>
<path fill="#D71B27" opacity="1.000000" stroke="none" 
	d="
M220.671814,21.848549 
	C220.739777,22.477274 220.481308,23.011360 220.222839,23.545444 
	C219.846497,23.158346 219.470169,22.771246 219.048752,22.138603 
	C219.450912,21.846676 219.898163,21.800293 220.671814,21.848549 
z"/>
<path fill="#D51A27" opacity="1.000000" stroke="none" 
	d="
M262.930115,96.290955 
	C262.966003,96.970245 262.737427,97.855530 262.284241,98.868591 
	C262.261627,98.163231 262.463654,97.330086 262.930115,96.290955 
z"/>
<path fill="#D41825" opacity="1.000000" stroke="none" 
	d="
M725.336426,106.793381 
	C725.859619,106.910118 726.775085,107.041512 727.754761,107.468323 
	C727.122253,107.445168 726.425476,107.126610 725.336426,106.793381 
z"/>
<path fill="#D51A27" opacity="1.000000" stroke="none" 
	d="
M261.029358,107.320374 
	C261.029205,107.992989 260.764923,108.870529 260.275452,109.872604 
	C260.288574,109.173195 260.526886,108.349243 261.029358,107.320374 
z"/>
<path fill="#D41825" opacity="1.000000" stroke="none" 
	d="
M692.087891,30.280495 
	C692.655212,30.594959 693.222656,31.196230 693.691223,32.013069 
	C693.090881,31.674860 692.589417,31.121078 692.087891,30.280495 
z"/>
<path fill="#D51A27" opacity="1.000000" stroke="none" 
	d="
M268.809448,63.236526 
	C268.875153,63.936523 268.667572,64.837601 268.230530,65.868980 
	C268.179443,65.145393 268.357788,64.291496 268.809448,63.236526 
z"/>
<path fill="#D51B29" opacity="1.000000" stroke="none" 
	d="
M169.055298,43.642899 
	C168.438217,43.005207 167.838593,42.010288 167.228622,40.638447 
	C167.836426,41.269577 168.454590,42.277626 169.055298,43.642899 
z"/>
<path fill="#D61B27" opacity="1.000000" stroke="none" 
	d="
M501.092896,66.663330 
	C500.597992,66.171440 500.167053,65.343231 499.837219,64.273148 
	C500.344513,64.796516 500.750702,65.561768 501.092896,66.663330 
z"/>
<path fill="#D41825" opacity="1.000000" stroke="none" 
	d="
M701.665955,56.296318 
	C702.074097,56.910381 702.402283,57.833447 702.705017,59.064629 
	C702.315063,58.450272 701.950500,57.527798 701.665955,56.296318 
z"/>
<path fill="#D71B27" opacity="1.000000" stroke="none" 
	d="
M237.319702,81.164703 
	C237.752655,80.488838 238.512207,79.801369 239.580292,79.030319 
	C239.141342,79.682198 238.393829,80.417648 237.319702,81.164703 
z"/>
<path fill="#D71B27" opacity="1.000000" stroke="none" 
	d="
M240.255859,78.803665 
	C240.538467,78.053024 241.124969,77.207771 242.002899,76.229919 
	C241.716125,76.967903 241.137939,77.838478 240.255859,78.803665 
z"/>
<path fill="#D71B27" opacity="1.000000" stroke="none" 
	d="
M218.240356,95.642494 
	C218.872330,95.745590 219.704025,96.148773 220.746246,96.832367 
	C220.117874,96.722717 219.278976,96.332657 218.240356,95.642494 
z"/>
<path fill="#D51A26" opacity="1.000000" stroke="none" 
	d="
M748.965820,106.691139 
	C748.550171,106.499680 748.138672,106.003967 747.756714,105.303680 
	C748.180847,105.528366 748.575378,105.957626 748.965820,106.691139 
z"/>
<path fill="#D51A27" opacity="1.000000" stroke="none" 
	d="
M312.930359,43.705479 
	C312.554077,43.467880 312.208954,42.935513 311.925507,42.204453 
	C312.311951,42.474075 312.636749,42.942394 312.930359,43.705479 
z"/>
<path fill="#D61B27" opacity="1.000000" stroke="none" 
	d="
M506.836151,98.707214 
	C506.466553,98.475281 506.136017,97.951317 505.862701,97.233109 
	C506.238342,97.497635 506.556793,97.956413 506.836151,98.707214 
z"/>
<path fill="#DA1B26" opacity="1.000000" stroke="none" 
	d="
M721.028564,47.642136 
	C720.507568,47.249313 719.983643,46.501934 719.405090,45.396698 
	C719.908875,45.788418 720.467163,46.537998 721.028564,47.642136 
z"/>
<path fill="#D41825" opacity="1.000000" stroke="none" 
	d="
M722.494019,113.458893 
	C722.163635,113.033325 722.110596,112.454590 722.031433,111.441872 
	C722.266602,110.996475 722.527832,110.982948 722.985229,110.961578 
	C723.044678,111.739151 722.908020,112.522438 722.494019,113.458893 
z"/>
<path fill="#D41825" opacity="1.000000" stroke="none" 
	d="
M698.169434,47.324356 
	C698.639893,47.704498 699.145325,48.415947 699.706055,49.466888 
	C699.242371,49.089470 698.723389,48.372570 698.169434,47.324356 
z"/>
<path fill="#D51A26" opacity="1.000000" stroke="none" 
	d="
M745.032166,94.688011 
	C744.619690,94.482811 744.216614,93.971191 743.856079,93.253265 
	C744.279663,93.491829 744.660583,93.936714 745.032166,94.688011 
z"/>
<path fill="#D71B27" opacity="1.000000" stroke="none" 
	d="
M246.935425,43.705708 
	C246.557648,43.449234 246.244995,42.899517 246.007233,42.154221 
	C246.388260,42.443245 246.694397,42.927853 246.935425,43.705708 
z"/>
<path fill="#D61B27" opacity="1.000000" stroke="none" 
	d="
M508.853180,109.707260 
	C508.475250,109.483604 508.126007,108.967888 507.826050,108.255913 
	C508.210846,108.511497 508.546356,108.963341 508.853180,109.707260 
z"/>
<path fill="#D61B27" opacity="1.000000" stroke="none" 
	d="
M455.030243,51.262077 
	C455.047058,51.673717 454.819519,52.242374 454.410400,52.903858 
	C454.414490,52.470825 454.600189,51.944958 455.030243,51.262077 
z"/>
<path fill="#D41825" opacity="1.000000" stroke="none" 
	d="
M696.024231,41.304512 
	C696.436218,41.501743 696.852478,42.003139 697.230957,42.711281 
	C696.805054,42.481571 696.416748,42.045124 696.024231,41.304512 
z"/>
<path fill="#D51A26" opacity="1.000000" stroke="none" 
	d="
M752.835693,118.713493 
	C752.437012,119.006233 752.025085,119.006485 751.304077,119.003662 
	C751.155151,118.523697 751.315247,118.046799 751.591370,117.346298 
	C752.079102,117.555458 752.450806,117.988235 752.835693,118.713493 
z"/>
<path fill="#D61B27" opacity="1.000000" stroke="none" 
	d="
M456.673126,41.129227 
	C456.772308,41.577156 456.614990,42.184479 456.269226,42.895355 
	C456.192749,42.428814 456.304718,41.858719 456.673126,41.129227 
z"/>
<path fill="#D51A27" opacity="1.000000" stroke="none" 
	d="
M258.771606,119.167496 
	C258.838623,119.609619 258.649658,120.205711 258.271027,120.900078 
	C258.226105,120.439392 258.370850,119.880432 258.771606,119.167496 
z"/>
<path fill="#D41825" opacity="1.000000" stroke="none" 
	d="
M719.793823,120.688736 
	C719.821350,120.279190 720.096924,119.716637 720.563171,119.074509 
	C720.516541,119.508545 720.279175,120.022133 719.793823,120.688736 
z"/>
<path fill="#D51A27" opacity="1.000000" stroke="none" 
	d="
M272.930847,41.224792 
	C272.987610,41.644787 272.802063,42.222698 272.439026,42.899475 
	C272.403900,42.459793 272.546234,41.921249 272.930847,41.224792 
z"/>
<path fill="#DA1A28" opacity="1.000000" stroke="none" 
	d="
M146.594757,21.986992 
	C145.893158,22.384037 144.801117,22.679966 143.366913,22.997543 
	C143.020187,22.842146 143.015671,22.665098 143.005051,22.222458 
	C144.067413,21.933203 145.135880,21.909538 146.594757,21.986992 
z"/>
<path fill="#D71B27" opacity="1.000000" stroke="none" 
	d="
M235.282623,84.676315 
	C235.076813,84.414146 234.892822,83.810959 234.893356,83.101578 
	C235.153397,83.442017 235.228912,83.888664 235.282623,84.676315 
z"/>
<path fill="#D51A27" opacity="1.000000" stroke="none" 
	d="
M316.791046,64.709610 
	C316.419891,64.492485 316.069458,63.986149 315.760193,63.284954 
	C316.138153,63.533531 316.474976,63.976963 316.791046,64.709610 
z"/>
<path fill="#D71B27" opacity="1.000000" stroke="none" 
	d="
M243.552429,73.672562 
	C243.667435,73.064774 244.070450,72.246895 244.743637,71.214302 
	C244.622681,71.820549 244.231552,72.641518 243.552429,73.672562 
z"/>
<path fill="#D61B27" opacity="1.000000" stroke="none" 
	d="
M450.761536,73.162552 
	C450.849640,73.605186 450.681122,74.200783 450.327728,74.897629 
	C450.263550,74.437752 450.384247,73.876633 450.761536,73.162552 
z"/>
<path fill="#D61B27" opacity="1.000000" stroke="none" 
	d="
M452.879974,62.212357 
	C452.934113,62.633690 452.745056,63.217682 452.373718,63.899975 
	C452.339874,63.457188 452.488312,62.916100 452.879974,62.212357 
z"/>
<path fill="#D51A27" opacity="1.000000" stroke="none" 
	d="
M266.950317,74.241028 
	C266.979523,74.655426 266.766632,75.231804 266.370056,75.902634 
	C266.360352,75.465729 266.534302,74.934364 266.950317,74.241028 
z"/>
<path fill="#D51A26" opacity="1.000000" stroke="none" 
	d="
M731.028625,61.255505 
	C731.018677,61.676563 730.749878,62.250500 730.287537,62.911270 
	C730.319275,62.468201 730.544556,61.938290 731.028625,61.255505 
z"/>
<path fill="#D61B27" opacity="1.000000" stroke="none" 
	d="
M502.947388,76.697441 
	C502.546570,76.479904 502.177521,75.962875 501.857605,75.245148 
	C502.264221,75.495613 502.621674,75.946785 502.947388,76.697441 
z"/>
<path fill="#D71B27" opacity="1.000000" stroke="none" 
	d="
M246.966705,62.023830 
	C246.749695,61.616154 246.689026,60.949516 246.813293,60.141632 
	C247.039841,60.588547 247.081451,61.176708 246.966705,62.023830 
z"/>
<path fill="#D51A27" opacity="1.000000" stroke="none" 
	d="
M276.715210,22.073471 
	C276.730194,22.605215 276.459961,23.137850 276.036316,23.835812 
	C276.065247,23.358879 276.247589,22.716621 276.715210,22.073471 
z"/>
<path fill="#D61B27" opacity="1.000000" stroke="none" 
	d="
M453.781616,55.152134 
	C453.952667,55.533398 454.001770,56.103046 453.948120,56.871498 
	C453.783508,56.493706 453.721588,55.917114 453.781616,55.152134 
z"/>
<path fill="#D51A27" opacity="1.000000" stroke="none" 
	d="
M264.943176,85.234932 
	C264.980408,85.650673 264.776184,86.228096 264.390228,86.901703 
	C264.372894,86.464134 264.537323,85.930374 264.943176,85.234932 
z"/>
<path fill="#D51A27" opacity="1.000000" stroke="none" 
	d="
M320.877075,86.706596 
	C320.499054,86.478294 320.151978,85.957436 319.858032,85.239586 
	C320.243469,85.499748 320.575775,85.956886 320.877075,86.706596 
z"/>
<path fill="#D71B27" opacity="1.000000" stroke="none" 
	d="
M239.568344,87.509506 
	C238.958649,87.363678 238.176483,86.903236 237.193436,86.162384 
	C237.793671,86.319611 238.594757,86.757256 239.568344,87.509506 
z"/>
<path fill="#D61B27" opacity="1.000000" stroke="none" 
	d="
M498.845673,54.708389 
	C498.465454,54.485661 498.115906,53.971058 497.814423,53.260193 
	C498.200439,53.514790 498.538391,53.965652 498.845673,54.708389 
z"/>
<path fill="#DA1B26" opacity="1.000000" stroke="none" 
	d="
M722.980957,53.694397 
	C722.565491,53.501583 722.151550,53.003765 721.764832,52.300205 
	C722.188904,52.526104 722.585693,52.957748 722.980957,53.694397 
z"/>
<path fill="#D41825" opacity="1.000000" stroke="none" 
	d="
M710.785645,88.161797 
	C710.843384,88.620338 710.626648,89.221138 710.209839,89.911987 
	C710.177002,89.436035 710.344116,88.870049 710.785645,88.161797 
z"/>
<path fill="#DA1A28" opacity="1.000000" stroke="none" 
	d="
M185.419861,22.376602 
	C184.716217,22.780533 183.822037,22.860735 182.480225,22.970577 
	C183.098175,22.684437 184.163742,22.368656 185.419861,22.376602 
z"/>
<path fill="#DA1B26" opacity="1.000000" stroke="none" 
	d="
M726.319702,66.975243 
	C726.001709,66.553375 725.997559,66.109314 725.996826,65.332123 
	C726.368835,65.437538 726.737549,65.876076 727.183472,66.607437 
	C727.051636,66.917862 726.842651,66.935455 726.319702,66.975243 
z"/>
<path fill="#D71B27" opacity="1.000000" stroke="none" 
	d="
M243.209503,91.637886 
	C242.888229,91.495102 242.565567,91.051750 242.126831,90.359390 
	C242.409882,90.519356 242.808990,90.928337 243.209503,91.637886 
z"/>
<path fill="#DA1B26" opacity="1.000000" stroke="none" 
	d="
M719.206543,42.758339 
	C719.009705,42.786877 718.949707,42.528702 719.013428,42.119904 
	C719.117126,42.156239 719.185852,42.323689 719.206543,42.758339 
z"/>
<path fill="#0A0102" opacity="1.000000" stroke="none" 
	d="
M212.855896,76.718994 
	C210.850372,76.765411 208.844849,76.811829 206.282837,76.542587 
	C205.411438,70.788071 204.815445,65.347313 204.852234,59.910828 
	C204.899063,52.992352 205.458237,46.077343 205.796539,39.160843 
	C210.608627,39.704323 215.420731,40.247803 220.744736,41.203522 
	C222.082413,42.375446 222.908173,43.135132 223.733932,43.894817 
	C224.029999,50.611912 224.326080,57.329010 224.494720,64.738174 
	C224.256882,66.287094 224.146484,67.143951 224.036102,68.000809 
	C223.027878,72.518219 219.966064,74.791031 215.025085,75.813873 
	C213.891953,76.203354 213.373932,76.461182 212.855896,76.718994 
z"/>
<path fill="#D71B27" opacity="1.000000" stroke="none" 
	d="
M205.420029,39.329430 
	C205.458237,46.077343 204.899063,52.992352 204.852234,59.910828 
	C204.815445,65.347313 205.411438,70.788071 205.858688,76.623810 
	C205.015533,76.088333 203.210861,75.172516 203.191879,74.221100 
	C202.986191,63.905788 202.992752,53.583878 203.146606,43.266830 
	C203.165482,42.001408 204.382004,40.753853 205.420029,39.329430 
z"/>
<path fill="#D71B27" opacity="1.000000" stroke="none" 
	d="
M224.292572,67.906265 
	C224.146484,67.143951 224.256882,66.287094 224.600037,65.193130 
	C224.738220,65.907913 224.643646,66.859818 224.292572,67.906265 
z"/>
<path fill="#D71B27" opacity="1.000000" stroke="none" 
	d="
M199.607758,24.675552 
	C199.672546,24.920649 199.626526,25.130962 199.580521,25.341276 
	C199.458237,25.302174 199.335953,25.263071 199.213669,25.223972 
	C199.308090,25.029573 199.402512,24.835173 199.607758,24.675552 
z"/>
<path fill="#D71B27" opacity="1.000000" stroke="none" 
	d="
M223.640076,43.542168 
	C222.908173,43.135132 222.082413,42.375446 221.104645,41.317108 
	C221.817154,41.742146 222.681702,42.465836 223.640076,43.542168 
z"/>
<path fill="#D71B27" opacity="1.000000" stroke="none" 
	d="
M213.052948,76.817322 
	C213.373932,76.461182 213.891953,76.203354 214.704498,76.002373 
	C214.416031,76.344688 213.833023,76.630173 213.052948,76.817322 
z"/>
<path fill="#120203" opacity="1.000000" stroke="none" 
	d="
M293.417542,52.074310 
	C294.690826,60.540085 296.001526,69.000458 297.226532,77.473213 
	C298.356903,85.291481 299.395355,93.123047 300.571472,101.653435 
	C294.277069,101.653435 288.295532,101.653435 282.168579,101.653435 
	C284.624969,84.949348 287.068420,68.333099 289.767578,51.268459 
	C291.154694,51.238155 292.286102,51.656231 293.417542,52.074310 
z"/>
<path fill="#D51A27" opacity="1.000000" stroke="none" 
	d="
M293.457306,51.662834 
	C292.286102,51.656231 291.154694,51.238155 289.719696,50.886787 
	C289.614532,49.640846 289.812927,48.328186 290.011322,47.015526 
	C290.563141,46.906643 291.114990,46.797764 291.666809,46.688881 
	C292.276917,48.209705 292.886993,49.730534 293.457306,51.662834 
z"/>
<path fill="#120203" opacity="1.000000" stroke="none" 
	d="
M477.293427,52.145657 
	C479.274139,64.660515 481.291260,77.169792 483.209778,89.694176 
	C483.685638,92.800720 484.052490,95.958748 484.014191,99.087540 
	C484.003082,99.997253 482.456604,101.609795 481.541016,101.663757 
	C477.238037,101.917381 472.891510,101.943008 468.604462,101.559395 
	C467.661835,101.475044 466.058167,99.288315 466.185944,98.244370 
	C467.144501,90.411293 468.460785,82.621994 469.890076,74.215332 
	C470.377411,72.741646 470.639801,71.871628 470.902222,71.001610 
	C471.800293,64.287895 472.698334,57.574184 473.832214,50.451061 
	C475.143188,50.742985 476.218292,51.444321 477.293427,52.145657 
z"/>
<path fill="#D61B27" opacity="1.000000" stroke="none" 
	d="
M477.355011,51.726192 
	C476.218292,51.444321 475.143188,50.742985 473.800995,50.060539 
	C473.677307,48.772785 473.820679,47.466145 473.964050,46.159508 
	C474.550323,46.062099 475.136597,45.964691 475.722839,45.867283 
	C476.287445,47.680431 476.852020,49.493580 477.355011,51.726192 
z"/>
<path fill="#D61B27" opacity="1.000000" stroke="none" 
	d="
M470.648987,71.233658 
	C470.639801,71.871628 470.377411,72.741646 469.825714,73.824562 
	C469.822845,73.180206 470.109283,72.322952 470.648987,71.233658 
z"/>
<path fill="#060101" opacity="1.000000" stroke="none" 
	d="
M125.720764,130.368927 
	C125.467278,102.461349 125.483986,74.900833 125.517296,47.340340 
	C125.519493,45.518612 125.648262,43.697041 126.313416,41.432854 
	C132.291687,41.296074 137.674683,41.601841 143.057678,41.907608 
	C144.110916,42.966045 145.164169,44.024483 146.533844,45.195641 
	C146.823212,45.689365 146.796158,46.070370 146.787689,47.082790 
	C147.058273,48.872349 147.310257,50.030491 147.562241,51.188633 
	C147.550674,51.561855 147.539108,51.935078 147.318314,52.962845 
	C147.245224,60.267746 147.432190,66.917526 147.506638,73.568573 
	C147.650146,86.389778 147.730072,99.211708 147.836365,112.033333 
	C147.760117,114.061218 147.683853,116.089096 147.555557,118.922043 
	C146.205566,123.525360 145.466019,127.675514 140.849457,129.575500 
	C137.635376,130.057755 134.829086,130.604019 132.022781,131.150284 
	C130.013474,131.005524 128.004150,130.860764 125.720764,130.368927 
z"/>
<path fill="#DA1A28" opacity="1.000000" stroke="none" 
	d="
M148.137222,111.949379 
	C147.730072,99.211708 147.650146,86.389778 147.506638,73.568573 
	C147.432190,66.917526 147.245224,60.267746 147.299561,53.242264 
	C148.725235,54.332134 150.606628,55.613224 151.084854,57.293648 
	C153.268158,64.965050 154.516769,72.654152 153.565948,80.849274 
	C152.753021,87.855705 153.825470,95.073837 153.963226,102.200279 
	C154.045700,106.466454 152.841461,110.109352 148.137222,111.949379 
z"/>
<path fill="#DA1A28" opacity="1.000000" stroke="none" 
	d="
M141.257217,129.639511 
	C145.466019,127.675514 146.205566,123.525360 147.657928,119.346916 
	C149.094360,120.517883 150.376389,122.069031 151.421997,123.334145 
	C148.366287,127.719955 146.949905,133.379181 140.094330,131.497192 
	C140.323303,130.724579 140.790268,130.182037 141.257217,129.639511 
z"/>
<path fill="#8A1018" opacity="1.000000" stroke="none" 
	d="
M140.849457,129.575500 
	C140.790268,130.182037 140.323303,130.724579 139.655640,131.453705 
	C137.202148,131.590759 134.949371,131.541214 132.359695,131.320984 
	C134.829086,130.604019 137.635376,130.057755 140.849457,129.575500 
z"/>
<path fill="#DA1A28" opacity="1.000000" stroke="none" 
	d="
M147.744400,50.923019 
	C147.310257,50.030491 147.058273,48.872349 146.874207,47.357037 
	C147.270279,48.219040 147.598419,49.438221 147.744400,50.923019 
z"/>
<path fill="#8A1018" opacity="1.000000" stroke="none" 
	d="
M142.909943,41.574409 
	C137.674683,41.601841 132.291687,41.296074 126.441368,40.976032 
	C129.961700,38.243729 138.824173,38.391251 142.909943,41.574409 
z"/>
<path fill="#DA1B26" opacity="1.000000" stroke="none" 
	d="
M710.313721,76.839569 
	C709.772522,74.242302 709.466431,71.479691 709.079407,68.361938 
	C712.079834,70.437233 712.559204,73.333054 710.313721,76.839569 
z"/>
<path fill="#DA1B26" opacity="1.000000" stroke="none" 
	d="
M703.795166,42.807968 
	C703.692871,43.042210 703.521729,43.182804 703.350647,43.323402 
	C703.277222,43.221096 703.203796,43.118786 703.130432,43.016464 
	C703.329102,42.915745 703.527710,42.815029 703.795166,42.807968 
z"/>
</svg>